<?xml version="1.0" standalone="no"?>
<!DOCTYPE svg PUBLIC "-//W3C//DTD SVG 1.1//EN" "http://www.w3.org/Graphics/SVG/1.1/DTD/svg11.dtd">
<svg xmlns="http://www.w3.org/2000/svg">
<metadata>Copyright (C) 2018 by original authors @ fontello.com</metadata>
<defs>
<font id="fontello-custom" horiz-adv-x="1000" >
<font-face font-family="fontello-custom" font-weight="400" font-stretch="normal" units-per-em="1000" ascent="850" descent="-150" />
<missing-glyph horiz-adv-x="1000" />
<glyph glyph-name="instagram-with-circle" unicode="&#xe804;" d="M703 504a86 86 0 0 1-49 49 144 144 0 0 1-49 9c-27 1-35 2-105 2s-78-1-105-2a144 144 0 0 1-49-9 86 86 0 0 1-49-49 144 144 0 0 1-9-49c-1-27-1-35-1-105s0-78 1-105a144 144 0 0 1 9-49 86 86 0 0 1 49-49 144 144 0 0 1 49-9c27-1 36-1 105-1s78 0 105 1a144 144 0 0 1 49 9 86 86 0 0 1 49 49 144 144 0 0 1 9 49c1 27 2 36 2 105s-1 78-2 105a144 144 0 0 1-9 49z m-203-288a134 134 0 1 0 134 134 134 134 0 0 0-134-134z m139 242a31 31 0 1 0 31 31 31 31 0 0 0-31-31z m-52-108a87 87 0 1 0-87 87 87 87 0 0 0 87-87z m-87 500a500 500 0 1 1 500-500 500 500 0 0 1-500 500z m259-607a191 191 0 0 0-12-64 133 133 0 0 0-76-76 191 191 0 0 0-64-12c-27-1-36-1-107-1s-80 0-107 1a191 191 0 0 0-64 12 133 133 0 0 0-76 76 191 191 0 0 0-12 64c-1 27-1 36-1 107s0 80 1 107a191 191 0 0 0 12 64 133 133 0 0 0 76 76 191 191 0 0 0 64 12c27 1 36 1 107 1s80 0 107-1a191 191 0 0 0 64-12 133 133 0 0 0 76-76 191 191 0 0 0 12-64c1-27 1-36 1-107s0-80-1-107z" horiz-adv-x="1000" />

<glyph glyph-name="alarm" unicode="&#xe805;" d="M896 522c12 11 59 55 61 122 1 47-22 91-68 130 0 0-1 1-1 1-54 42-102 45-133 39-53-10-89-48-104-68-48 18-99 28-151 28-52 0-103-10-150-26-16 21-51 59-104 68-31 6-79 4-133-39 0 0-1-1-1-1-47-41-70-85-68-132 1-67 47-111 60-122-27-57-41-120-41-187 0-110 41-211 109-288-1-1-1-1-2-2l-63-95c-13-20-8-47 12-60 7-5 16-7 23-7 15 0 29 6 36 19l57 85c74-57 165-90 265-90 100 0 192 33 266 91l58-86c9-13 22-19 36-19 9 0 16 2 24 7 19 13 25 40 12 60l-63 95c-1 1-3 2-4 3 67 77 107 177 107 287 1 67-13 130-40 187z m-125 207c18 4 39-4 62-21 25-22 37-43 37-63 0-19-11-36-21-47-33 43-73 79-119 109 11 10 25 20 41 22z m-641-84c0 20 12 41 37 63 23 17 44 25 62 21 16-3 30-13 41-22-46-29-86-66-119-109-9 12-21 28-21 47z m370-661c-193 0-350 157-350 351s157 352 350 352 350-158 350-351-156-352-350-352z m158 255c17-17 17-44 0-62-9-8-20-13-31-13-11 0-22 5-30 13l-127 127c-8 9-13 20-13 31v235c0 24 19 43 43 43s44-19 44-43v-217l114-114z" horiz-adv-x="1000" />

<glyph glyph-name="align-center" unicode="&#xe806;" d="M891 654h-782c-24 0-44 20-44 44s20 43 44 43h782c24 0 44-19 44-43s-20-44-44-44z m-122-189c0 24-20 44-44 44h-450c-24 0-43-20-43-44s19-43 43-43h450c24 0 44 19 44 43z m66-231c0 24-20 43-44 43h-582c-24 0-44-19-44-43s20-44 44-44h582c24 0 44 20 44 44z m79-232c0 24-19 44-43 44h-742c-24 0-43-20-43-44s19-43 43-43h741c25 0 44 19 44 43z" horiz-adv-x="1000" />

<glyph glyph-name="align-justify" unicode="&#xe807;" d="M891 654h-782c-24 0-44 20-44 44s20 43 44 43h782c24 0 44-19 44-43s-20-44-44-44z m44-189c0 24-20 44-44 44h-782c-24 0-44-20-44-44s20-43 44-43h782c24 0 44 19 44 43z m0-231c0 24-20 43-44 43h-782c-24 0-44-19-44-43s20-44 44-44h782c24 0 44 20 44 44z m-391-232c0 24-20 44-44 44h-388c-24 0-43-20-43-44s19-43 43-43h388c24 0 44 19 44 43z" horiz-adv-x="1000" />

<glyph glyph-name="align-left" unicode="&#xe808;" d="M891 654h-782c-24 0-44 20-44 44s20 43 44 43h782c24 0 44-19 44-43s-20-44-44-44z m-289-189c0 24-19 44-43 44h-450c-24 0-44-20-44-44s20-43 44-43h450c24 0 43 19 43 43z m133-231c0 24-20 43-44 43h-582c-24 0-44-19-44-43s20-44 44-44h582c24 0 44 20 44 44z m161-232c0 24-20 44-44 44h-740c-24 0-43-20-43-44s19-43 43-43h740c24 0 44 19 44 43z" horiz-adv-x="1000" />

<glyph glyph-name="align-right" unicode="&#xe809;" d="M891 654h-782c-24 0-44 20-44 44s20 43 44 43h782c24 0 44-19 44-43s-20-44-44-44z m44-189c0 24-20 44-44 44h-450c-24 0-43-20-43-44s19-43 43-43h450c24 0 44 19 44 43z m0-231c0 24-20 43-44 43h-582c-24 0-44-19-44-43s20-44 44-44h582c24 0 44 20 44 44z m-3-232c0 24-20 44-44 44h-740c-24 0-44-20-44-44s20-43 44-43h740c24 0 44 19 44 43z" horiz-adv-x="1000" />

<glyph glyph-name="anchor" unicode="&#xe80a;" d="M947 271c-9 9-21 14-34 14h-140c-24 0-44-20-44-44s20-43 44-43h85c-44-141-167-242-314-259v577c71 20 125 86 125 164 0 94-75 170-169 170-93 0-168-76-168-170 0-78 48-144 125-164v-577c-153 17-271 118-315 259h85c24 0 44 19 44 43s-20 44-44 44h-140c-13 0-25-5-34-14-8-10-12-22-9-35 38-224 230-386 456-386s419 162 455 386c3 13-1 25-8 35z m-528 409c0 46 36 83 81 83 46 0 82-37 82-83 0-45-37-82-82-82-46 0-81 37-81 82z" horiz-adv-x="1000" />

<glyph glyph-name="archive" unicode="&#xe80b;" d="M171 611c0 24 19 43 43 43h571c24 0 43-19 43-43s-19-44-43-44h-571c-24 0-43 20-43 44z m115 109h428c21 0 38 17 38 38s-17 38-38 38h-428c-21 0-38-18-38-38s17-38 38-38z m714-159v-119c0 0 0 0 0 0 0 0 0 0 0 0 0 0 0 0 0 0 0 0 0 0 0 0 0-4-1-8-2-12l-139-505c-6-19-22-32-42-32h-637c-19 0-36 13-42 33l-136 504c-1 3-1 5-2 7 0 2 0 4 0 7v117c0 24 20 43 44 43s43-19 43-43v-81h826v81c0 24 20 43 44 43s43-19 43-43z m-101-167h-799l113-414h287 284l115 414z m-527-218h256c24 0 44 20 44 44s-20 43-44 43h-256c-24 0-44-19-44-43s20-44 44-44z" horiz-adv-x="1000" />

<glyph glyph-name="arrow-down" unicode="&#xe80c;" d="M866 311c-6 15-22 28-40 28h-141v402c0 24-25 44-49 44h-272c-24 0-49-20-49-44v-402h-141c-17 0-34-13-40-28-7-16-4-36 8-48l327-334c8-8 19-13 31-13 12 0 23 5 32 13l326 334c12 12 15 32 8 48z m-366-286l-223 227h87c24 0 38 15 38 39v407h196v-407c0-24 14-39 38-39h87l-223-227z" horiz-adv-x="1000" />

<glyph glyph-name="arrow-left" unicode="&#xe80d;" d="M891 535h-402v141c0 18-13 34-28 40-16 7-36 4-48-8l-334-326c-8-9-14-20-14-32s5-23 13-31l333-327c9-7 19-12 30-12 6 0 13 1 19 4 16 6 28 23 28 40v141h402c24 0 44 25 44 49v272c1 24-19 49-43 49z m-43-283h-407c-24 0-39-14-39-38v-87l-227 223 227 223v-87c0-24 15-38 39-38h407v-196z" horiz-adv-x="1000" />

<glyph glyph-name="arrow-right" unicode="&#xe80e;" d="M922 382l-333 326c-13 12-34 16-49 8-16-6-29-22-29-40v-141h-402c-24 0-44-25-44-49v-272c0-24 20-49 44-49h402v-141c0-17 13-34 28-40 6-3 12-4 18-4 10 0 22 5 30 12l333 327c8 8 13 19 13 31s-3 23-11 32z m-324-255v87c0 24-15 38-39 38h-407v196h407c24 0 39 14 39 38v87l227-223-227-223z" horiz-adv-x="1000" />

<glyph glyph-name="arrow-thin-down" unicode="&#xe80f;" d="M802 221l-272-271c-8-9-19-13-30-13s-22 4-30 13l-272 271c-18 17-18 44 0 62 17 17 44 17 62 0l197-198v635c0 24 19 43 43 43 24 0 44-19 44-43v-635l197 197c18 17 45 17 62 0 17-17 17-44-1-61z" horiz-adv-x="1000" />

<glyph glyph-name="arrow-thin-left" unicode="&#xe810;" d="M913 350c0-24-19-43-43-43h-635l197-198c17-18 17-45 0-62-8-8-19-12-31-12-11 0-23 4-30 13l-271 272c-17 17-17 44 0 60l271 272c17 18 44 18 62 0 17-17 17-44 0-62l-198-196h635c24 0 43-20 43-44z" horiz-adv-x="1000" />

<glyph glyph-name="arrow-thin-right" unicode="&#xe811;" d="M900 320l-271-272c-8-9-19-13-30-13-11 0-22 4-30 13-18 17-18 44 0 62l196 197h-635c-23 0-43 19-43 43 0 24 20 44 43 44h635l-198 197c-17 18-17 45 0 62 18 18 45 18 62 0l271-271c17-18 17-46 0-62z" horiz-adv-x="1000" />

<glyph glyph-name="arrow-thin-up" unicode="&#xe812;" d="M802 417c-8-8-19-13-30-13-11 0-22 5-31 13l-197 198v-635c0-24-20-43-44-43-24 0-43 19-43 43v635l-198-198c-18-17-45-17-62 0-18 18-18 45 0 62l272 271c17 17 44 17 60 0l272-271c19-17 19-44 1-62z" horiz-adv-x="1000" />

<glyph glyph-name="arrow-up" unicode="&#xe813;" d="M858 439l-326 333c-9 8-20 13-32 13s-23-5-31-13l-327-333c-12-12-16-34-8-49 6-16 23-28 40-28h141v-402c0-24 25-44 49-44h272c24 0 49 20 49 44v401h141c18 0 34 13 40 28 7 16 4 37-8 50z m-222 9c-24 0-38-15-38-39v-407h-196v407c0 24-14 39-38 39h-87l223 227 223-227h-87z" horiz-adv-x="1000" />

<glyph glyph-name="article" unicode="&#xe814;" d="M826 828h-652c-24 0-44-19-44-43v-870c0-24 20-43 44-43h652c24 0 44 19 44 43v870c0 24-20 43-44 43z m-43-869h-566v782h566v-782z m-457 157c0 21 18 38 38 38h259c21 0 38-17 38-38s-16-38-38-38h-259c-20 0-38 18-38 38z m0 153c0 20 18 38 38 38h259c21 0 38-18 38-38s-16-39-38-39h-259c-20 0-38 18-38 39z m337 315c0 20-17 38-38 38h-261c-20 0-38-18-38-38v-152c0-21 18-38 38-38h261c21 0 38 17 38 38v152z m-261-38h185v-76h-185v76z" horiz-adv-x="1000" />

<glyph glyph-name="backspace" unicode="&#xe815;" d="M1000 354v-192c0-26-16-48-43-48s-44 22-44 48v143l-742 0 111-109c18-19 17-49-3-69-9-10-22-14-35-14-12 0-25 4-35 14l-196 193c-8 8-13 21-13 34 0 13 5 25 14 34l195 192c18 19 50 19 68 0 19-18 19-48-1-68l-111-110 785 0c13 0 27-5 36-14 9-9 14-22 14-34z" horiz-adv-x="1000" />

<glyph glyph-name="basket" unicode="&#xe816;" d="M957 535h-120c0 0-1 3-1 4l-206 251c-15 19-42 22-60 7s-22-45-7-63l162-199h-450l162 199c15 18 13 46-7 62-18 15-45 13-60-6l-206-252c0-1-1-3-1-3h-119c-24 0-44-15-44-39v-163c0-24 20-48 44-48h14l81-331c9-38 43-61 82-61h558c40 0 72 24 82 61l81 331h15c23 0 43 24 43 48v163c0 24-20 39-43 39z m-870-87h826v-76h-4-818-4v76z m690-468h-554l-76 305h706l-76-305z" horiz-adv-x="1000" />

<glyph glyph-name="basketball" unicode="&#xe817;" d="M500 850c-276 0-500-224-500-500s224-500 500-500 500 224 500 500-224 500-500 500z m315-766c-28 26-75 80-92 164 85 12 146 29 186 43-11-77-45-149-94-207z m-724 208c41-14 101-31 186-43-16-84-64-139-92-164-49 57-83 129-94 207z m69 293c35-37 110-131 120-249-105 16-167 40-192 51 8 73 33 140 72 198z m751-198c-25-11-86-36-192-51 10 117 86 212 120 249 40-58 65-125 72-198z m-279-61c-28-2-57-3-88-4v439c92-10 175-50 239-110-41-42-145-165-151-325z m-175-5c-32 1-61 2-88 4-8 161-112 283-153 325 64 60 147 100 239 110v-439z m-94-82c29-2 60-4 94-4v-295c-79 8-150 38-210 84 39 37 98 108 116 215z m181-5c32 1 64 2 93 4 20-106 77-178 116-215-58-46-131-76-209-85v296z" horiz-adv-x="1000" />

<glyph glyph-name="battery-empty" unicode="&#xe818;" d="M957 470h-33v119c0 24-19 44-44 44h-836c-24 0-44-20-44-44v-478c0-24 20-44 44-44h836c24 0 44 20 44 44v119h33c23 0 43 16 43 40v160c0 24-20 40-43 40z m-120-316h-750v392h750v-116-160-116z" horiz-adv-x="1000" />

<glyph glyph-name="battery-full" unicode="&#xe819;" d="M380 263v174c0 24 20 43 44 43h76c24 0 44-19 44-43v-174c0-24-20-43-44-43h-76c-24 0-44 19-44 43z m272-43h76c24 0 44 19 44 43v111c0 11-2 21-10 28l-58 65c-8 10-19 13-32 13h-20c-24 0-43-16-43-41v-176c0-24 19-43 43-43z m-456 0h76c24 0 43 19 43 43v174c0 24-19 43-43 43h-76c-24 0-44-19-44-43v-174c0-24 20-43 44-43z m804 210v-160c0-24-20-40-43-40h-33v-119c0-24-19-44-44-44h-836c-24 0-44 20-44 44v478c0 24 20 44 44 44h836c24 0 44-20 44-44v-119h33c23 0 43-16 43-40z m-163 116h-750v-392h750v116 160 116z" horiz-adv-x="1000" />

<glyph glyph-name="battery-low" unicode="&#xe81a;" d="M957 470h-33v119c0 24-19 44-44 44h-836c-24 0-44-20-44-44v-478c0-24 20-44 44-44h836c24 0 44 20 44 44v119h33c23 0 43 16 43 40v160c0 24-20 40-43 40z m-120-316h-750v392h750v-116-160-116z m-522 109c0-24-19-43-43-43h-76c-24 0-44 19-44 43v174c0 24 20 43 44 43h76c24 0 43-19 43-43v-174z" horiz-adv-x="1000" />

<glyph glyph-name="battery-medium" unicode="&#xe81b;" d="M957 470h-33v119c0 24-19 44-44 44h-836c-24 0-44-20-44-44v-478c0-24 20-44 44-44h836c24 0 44 20 44 44v119h33c23 0 43 16 43 40v160c0 24-20 40-43 40z m-120-316h-750v392h750v-116-160-116z m-522 109c0-24-19-43-43-43h-76c-24 0-44 19-44 43v174c0 24 20 43 44 43h76c24 0 43-19 43-43v-174z m229 0c0-24-20-43-44-43h-76c-24 0-44 19-44 43v174c0 24 20 43 44 43h76c24 0 44-19 44-43v-174z" horiz-adv-x="1000" />

<glyph glyph-name="bell" unicode="&#xe81c;" d="M913 73c-73 0-101 42-101 309 0 208-95 339-258 358v68c0 24-19 43-43 43s-44-19-44-43v-66c-173-14-275-146-275-359 0-267-31-309-105-309-23-1-43-17-43-41 0-25 19-42 43-42h283c3-32 13-73 39-101 23-25 53-39 89-39 36 0 66 15 89 39 27 30 38 69 42 101h284c24 0 44 17 44 42 0 24-20 40-44 40z m-389-124c-4-4-11-11-26-11-14 0-21 7-25 11-8 10-13 21-15 42h37c2 0 4 0 6 0 2 0 4 0 7 0h36c-5-21-10-32-20-42z m-17 129c-3 0-5 0-7 0-2 0-4 0-6 0h-257c40 76 40 195 40 306 0 177 77 270 217 270h11c140 0 217-93 217-270 0-111 0-230 40-306h-255z m154 386c1-20-15-39-36-40-1 0-1 0-2 0-20 0-37 15-38 36-3 49-41 66-46 68-19 9-28 31-20 50 7 20 29 29 48 21 5-2 88-37 94-135z" horiz-adv-x="1000" />

<glyph glyph-name="blog" unicode="&#xe81d;" d="M826 828h-652c-24 0-44-19-44-43v-870c0-24 20-43 44-43h652c24 0 44 19 44 43v870c0 24-20 43-44 43z m-43-869h-566v782h566v-782z m-473 185c0 23 19 43 43 43h294c24 0 43-20 43-43s-19-44-43-44h-294c-24 0-43 20-43 44z m6 206c0 24 20 44 44 44h286c24 0 43-20 43-44s-19-43-43-43h-286c-24 0-44 19-44 43z m0 207c0 23 20 43 44 43h286c24 0 43-20 43-43s-19-44-43-44h-286c-24 0-44 20-44 44z" horiz-adv-x="1000" />

<glyph glyph-name="bluetooth" unicode="&#xe81e;" d="M564 350l195 192c17 17 17 45 0 61l-229 233c-11 14-30 17-46 11-17-7-27-23-27-40l0-349-155 152c-17 17-44 16-62 0-17-18-16-45 0-62l201-198-200-199c-17-17-17-44 0-62 9-9 20-13 31-13 11 0 22 4 30 13l155 153 0-349c0-17 10-33 27-40 5-2 11-3 16-3 12 0 23 4 32 13l228 233c16 17 16 44 0 61l-196 193z m-20 350l122-126-122-122 0 248z m0-700l0 248 122-123-122-125z" horiz-adv-x="1000" />

<glyph glyph-name="bold" unicode="&#xe81f;" d="M653 370c41 39 66 94 66 154 0 120-98 217-218 217h-229c-24 0-44-19-44-43v-348-348c0-24 20-43 44-43h282c120 0 218 98 218 217 0 84-48 157-119 194z m-338 284h186c72 0 131-58 131-130s-59-130-131-130h-186v260z m239-608h-239v261h186 53c72 0 131-59 131-131s-59-130-131-130z" horiz-adv-x="1000" />

<glyph glyph-name="bookmark" unicode="&#xe820;" d="M696 850h-392c-24 0-43-20-43-43v-914c0-17 11-33 27-40 6-2 11-3 16-3 12 0 23 4 32 14l160 170 168-170c12-12 32-16 48-10 16 6 27 22 27 39v914c0 23-19 43-43 43z m-44-851l-126 129c-9 9-19 16-30 16 0 0 0 0 0 0-12 0-23-8-32-17l-116-124v760h304v-764z" horiz-adv-x="1000" />

<glyph glyph-name="bookmarks" unicode="&#xe821;" d="M576 665h-315c-24 0-44-16-44-40v-732c0-17 11-33 28-40 5-2 10-3 16-3 12 0 23 4 31 13l123 129 130-130c12-12 31-16 47-10 17 8 28 24 28 41v732c0 24-20 40-44 40z m-43-666l-87 88c-9 9-20 13-31 13 0 0 0 0 0 0-12 0-23-5-31-14l-80-84v576h229v-579z m239 818v-731c0-21-18-38-38-38s-38 17-38 38v688h-229v-14c0-21-17-38-38-38s-38 17-38 38v57c0 21 12 33 33 33h315c21 0 33-12 33-33z" horiz-adv-x="1000" />

<glyph glyph-name="box" unicode="&#xe822;" d="M812 589h-624c-24 0-43-19-43-43l-7-555c0-12 4-23 13-31s20-13 31-13h634c12 0 23 4 31 13 8 8 13 19 13 30l-5 555c0 25-19 44-43 44z m-312-554h-275l5 467h539l3-467h-272z m139 348c0-24-19-44-43-44h-192c-24 0-43 20-43 44s19 43 43 43h191c25 0 44-19 44-43z m326 175c-3-1-6-1-8-1-21 0-40 14-43 34l-14 74h-800l-14-74c-4-24-27-39-51-34-24 4-39 27-35 51l21 108c5 21 23 36 43 36h871c20 0 39-15 42-35l21-108c5-24-10-47-33-51z" horiz-adv-x="1000" />

<glyph glyph-name="briefcase" unicode="&#xe823;" d="M987 601c-8 8-18 10-30 10h-229v130c0 24-21 44-45 44h-366c-23 0-45-20-45-44v-130h-228c-24 0-44-14-44-38v-614c0-24 20-44 44-44h913c23 0 43 20 43 44l0 612c0 12-4 21-13 30z m-628 97h282v-87h-282v87z m554-174l0-228h-304v16c0 18-18 27-36 27h-146c-18 0-36-10-36-27v-16h-304v228h826z m-369-250v-22h-87v22h87z m-457-272v228h304v-10c0-19 18-33 36-33h147c18 0 36 15 36 33v10h304l0-228h-827z" horiz-adv-x="1000" />

<glyph glyph-name="brightness-low" unicode="&#xe824;" d="M500 538c-103 0-188-85-188-188 0-103 85-188 188-188s188 85 188 188c0 103-85 188-188 188z m0-289c-55 0-101 46-101 101 0 55 46 101 101 101s101-46 101-101c0-55-46-101-101-101z m-43 399v39c0 24 19 43 43 43s44-19 44-43v-39c0-24-20-44-44-44s-43 20-43 44z m423-298c0-24-19-43-43-43h-39c-24 0-44 19-44 43s20 44 44 44h39c24 0 43-20 43-44z m-336-298v-39c0-24-20-43-44-43s-43 19-43 43v39c0 24 19 44 43 44s44-20 44-44z m-342 255h-39c-24 0-43 19-43 43s19 44 43 44h39c24 0 44-20 44-44s-20-43-44-43z m477 222c-17 18-17 45 0 62l28 28c17 17 44 17 62 0 17-18 17-45 0-62l-28-28c-8-8-19-13-30-13-11 1-23 6-32 13z m90-387c17-17 17-44 0-62-9-8-20-13-31-13-11 0-22 5-30 13l-28 28c-17 17-17 44 0 62 18 17 45 17 62 0l27-28z m-448 29c17-18 17-45 0-62l-27-27c-9-9-20-13-31-13-11 0-22 4-30 13-18 17-18 44 0 62l27 27c16 16 43 16 61 0z m-89 387c-18 17-18 44 0 62 17 17 44 17 62 0l27-28c17-17 17-44 0-62-9-8-20-13-31-13-11 0-21 5-30 13l-28 28z" horiz-adv-x="1000" />

<glyph glyph-name="brightness-max" unicode="&#xe825;" d="M500 592c-134 0-242-108-242-242s108-242 242-242 242 108 242 242-108 242-242 242z m0-397c-86 0-155 69-155 155s69 155 155 155 155-69 155-155-69-155-155-155z m-43 521v91c0 23 19 43 43 43s44-20 44-43v-91c0-24-20-43-44-43s-43 19-43 43z m543-366c0-24-20-43-43-43h-91c-24 0-43 19-43 43s19 44 43 44h91c23 0 43-20 43-44z m-456-366v-91c0-23-20-43-44-43s-43 20-43 43v91c0 24 19 43 43 43s44-19 44-43z m-410 323h-90c-24 0-44 19-44 43s20 44 44 44h90c24 0 43-20 43-44s-19-43-43-43z m594 271c-17 18-17 45 0 62l63 63c18 18 45 18 62 0 18-17 18-44 0-62l-63-63c-8-8-19-13-30-13s-23 5-32 13z m125-520c18-18 18-45 0-62-8-9-19-13-30-13s-22 4-31 13l-64 64c-17 17-17 44 0 62 18 17 45 17 62 0l63-64z m-581 64c17-18 17-45 0-62l-63-63c-9-9-20-13-31-13s-21 4-30 13c-18 17-18 44 0 62l63 63c16 16 43 16 61 0z m-125 520c-18 18-18 45 0 62 17 18 44 18 62 0l63-63c17-17 17-44 0-62-9-8-20-13-31-13-11 0-21 5-30 13l-64 63z" horiz-adv-x="1000" />

<glyph glyph-name="brightness-medium" unicode="&#xe826;" d="M500 592c-134 0-242-108-242-242s108-242 242-242 242 108 242 242-108 242-242 242z m-155-242c0 86 69 155 155 155h0v-309h0c-86-1-155 68-155 154z m112 366v91c0 23 19 43 43 43s44-20 44-43v-91c0-24-20-43-44-43s-43 19-43 43z m543-366c0-24-20-43-43-43h-91c-24 0-43 19-43 43s19 44 43 44h91c23 0 43-20 43-44z m-456-366v-91c0-23-20-43-44-43s-43 20-43 43v91c0 24 19 43 43 43s44-19 44-43z m-410 323h-90c-24 0-44 19-44 43s20 44 44 44h90c24 0 43-20 43-44s-19-43-43-43z m594 271c-17 18-17 45 0 62l63 63c18 18 45 18 62 0 18-17 18-44 0-62l-63-63c-8-8-19-13-30-13-12 1-23 5-32 13z m125-520c18-18 18-45 0-62-8-9-19-13-30-13-11 0-22 4-31 13l-64 64c-17 17-17 44 0 62 18 17 45 17 62 0l63-64z m-581 64c17-18 17-45 0-62l-63-63c-9-9-20-13-31-13s-21 4-30 13c-18 17-18 44 0 62l63 63c16 16 43 16 61 0z m-125 520c-18 18-18 45 0 62 17 18 44 18 62 0l63-63c17-17 17-44 0-62-9-8-20-13-31-13-11 0-21 5-30 13l-64 63z" horiz-adv-x="1000" />

<glyph glyph-name="broadcast" unicode="&#xe827;" d="M995 477c-10 33-30 59-59 74-37 20-81 18-111 12l-63 223c-4 15-16 27-32 30-15 4-31-1-42-13-155-174-219-216-391-291l-135-39c-118-34-187-160-153-278 16-58 54-107 107-136 34-19 71-29 108-29 17 0 36 3 53 7l14-51c8-27 23-51 43-71l23-22c8-7 19-12 30-12 12 0 23 5 32 14 16 17 16 44-3 61l-22 22c-9 9-16 20-19 32l-14 51 63 18c180 28 262 25 483-38 4-1 7-2 12-2 10 0 22 5 30 13 11 11 15 27 11 43l-64 222c28 11 66 31 88 67 16 28 20 60 11 93z m-836-342c-33 17-56 48-67 82-20 74 22 150 94 172l98 28 44-157 31-109-98-28c-34-10-71-6-102 12z m442 48c-49 0-98-5-155-12l-63 223-16 54c137 63 211 112 333 239l154-542c-103 27-177 38-253 38z m309 246c-7-12-23-20-38-27l-22 76c16 2 35 2 47-4 5-3 11-8 15-20 3-13 0-19-2-25z m-276 72c12-17 8-41-9-53-40-28-86-53-88-54-5-4-12-5-17-5-15 0-28 8-34 21-10 18-2 41 16 51 0 0 44 23 78 48 18 14 42 10 54-8z" horiz-adv-x="1000" />

<glyph glyph-name="browser" unicode="&#xe828;" d="M957 752h-913c-24 0-44-19-44-43v-718c0-24 20-43 44-43h913c23 0 43 19 43 43v718c0 24-20 43-43 43z m-44-185h-304v98h304v-98z m-652 0v98h109v-98h-109z m174 98h109v-98h-109v98z m-239 0v-98h-109v98h109z m-109-630v456h826v-456h-826z" horiz-adv-x="1000" />

<glyph glyph-name="browser-upload" unicode="&#xe829;" d="M544 339l1-446c0-23-20-43-44-43 0 0 0 0 0 0-24 0-43 20-43 43l-1 447-127-126c-17-17-44-16-61 0-18 18-17 45 0 62l200 199c17 16 44 16 60 0l200-199c18-17 18-44 0-62-8-9-19-13-30-13-11 0-22 4-30 13l-125 125z m456 468v-725c0-24-20-47-43-47h-268c-24 0-43 19-43 43s19 44 43 44h224v467h-826v-467h227c24 0 44-20 44-44s-20-43-44-43h-270c-24 0-44 23-44 47v725c0 23 20 43 44 43h913c23 0 43-20 43-43z m-565-142h109v98h-109v-98z m-65 98h-109v-98h109v98z m-283-98h109v98h-109v-98z m826 0v98h-304v-98h304z" horiz-adv-x="1000" />

<glyph glyph-name="brush" unicode="&#xe82a;" d="M1000 755c0 25-10 48-27 66l-2 2c-36 36-94 36-130 1l-530-492c-72 15-149-5-203-60-75-74-74-157-73-207 0-6 0-13 0-18-1-40-22-89-31-106-5-11-6-24-2-35 5-11 13-20 24-25 51-21 102-31 151-31 86 0 168 33 230 95 51 51 79 113 79 175 0 15-2 29-4 43l491 528c17 18 27 41 27 64z m-654-748c-64-65-152-85-245-59 10 27 20 63 21 98v0c0 6 0 14 0 21-1 45-2 95 47 143 52 52 138 52 191 0 26-26 40-58 40-90 0-38-20-79-54-113z m566 745c0 0-1-1-1-1l-469-503c-6 9-13 16-20 24-8 7-17 14-24 20l503 469c0 0 1 1 1 1 2 2 6 2 8 0l2-2c1-2 1-3 1-5 0-1 0-2-1-3z" horiz-adv-x="1000" />

<glyph glyph-name="calendar" unicode="&#xe82b;" d="M239 613v139c0 31 24 55 55 55s54-24 54-55v-139c0-30-24-54-54-54s-55 24-55 54z m468-54c30 0 54 24 54 54v139c0 31-24 55-54 55s-55-24-55-55v-139c0-30 24-54 55-54z m293 124v-735c0-24-20-44-43-44h-913c-24 0-44 20-44 44v735c0 24 20 47 44 47h101c24 0 43-19 43-43s-19-43-43-43h-58v-185h826v185h-58c-23 0-43 19-43 43s20 43 43 43h102c23 0 43-23 43-47z m-87-692v392h-826v-392h826z m-481 653h137c23 0 43 19 43 43s-20 43-43 43h-137c-24 0-44-19-44-43s20-43 44-43z" horiz-adv-x="1000" />

<glyph glyph-name="camcorder" unicode="&#xe82c;" d="M976 617c-15 8-35 6-48-4l-178-131v96c0 24-15 44-39 44h-667c-24 0-44-20-44-44v-456c0-24 20-44 44-44h667c24 0 39 20 39 44v97l178-132c8-5 19-9 27-9 7 0 15 1 20 5 15 7 25 22 25 39v456c0 17-10 32-24 39z m-313-452h-576v370h576v-370z m250 44l-152 115v52l152 115v-282z" horiz-adv-x="1000" />

<glyph glyph-name="camera" unicode="&#xe82d;" d="M500 557c-137 0-249-113-249-253 0-139 112-252 249-252s249 113 249 252c0 140-112 253-249 253z m0-419c-89 0-162 74-162 165s73 167 162 167 162-74 162-166-73-166-162-166z m121 156c-2-20-19-33-38-33-3 0-4 0-6 0-20 3-36 22-32 42 4 32-33 49-35 50-19 9-27 32-19 50 9 19 31 27 50 20 35-15 89-59 80-129z m-84-48c8-8 13-20 13-31 0-11-4-23-13-30-9-8-20-13-30-13s-23 4-31 13c-7 9-13 19-13 30 0 12 4 23 13 31 9 8 20 13 31 13s22-5 30-13z m420 321h-168l-47 174c-5 19-22 33-42 33h-401c-20 0-37-14-42-33l-47-174h-166c-24 0-44-18-44-42v-555c0-24 20-44 44-44h913c23 0 43 20 43 44v555c0 24-20 42-43 42z m-44-554h-826v467h157c19 0 36 15 42 33l47 174h334l47-174c6-18 23-33 43-33h156v-467z" horiz-adv-x="1000" />

<glyph glyph-name="card" unicode="&#xe82e;" d="M1000 596c0 44-36 80-80 80h-840c-44 0-80-36-80-80v-493c0-43 36-79 80-79h841c44 0 80 36 80 80v492z m-87-7v-76h-826v76h826z m-826-478v272h826v-272h-826z m745 141c0-24-20-43-44-43h-206c-24 0-44 19-44 43s20 44 44 44h206c24 0 44-20 44-44z" horiz-adv-x="1000" />

<glyph glyph-name="cart" unicode="&#xe82f;" d="M998 553l-116-366c-9-26-32-43-59-43h-449c-26 0-51 16-60 40l-172 460h-98c-24 0-44 19-44 43s20 43 44 43h129c18 0 35-11 41-29l177-471h413l93 294h-512c-24 0-44 20-44 43s20 44 44 44h572c14 0 27-8 34-19 9-10 11-26 7-39z m-602-467c-19 0-37-8-50-21-13-13-21-31-21-50 0-18 8-37 21-50 13-13 31-20 50-20s37 7 50 20c13 13 20 32 20 50 0 19-7 37-20 50-13 13-32 21-50 21z m390 0c-19 0-37-8-50-21s-21-31-21-50c0-18 8-37 21-50 13-13 31-20 50-20 18 0 37 7 50 20 13 13 21 32 21 50 0 19-8 37-21 50s-32 21-50 21z" horiz-adv-x="1000" />

<glyph glyph-name="checklist" unicode="&#xe830;" d="M394 698c0 30 23 54 54 54h476c30 0 54-24 54-54s-24-54-54-54h-476c-29 0-54 23-54 54z m530-294h-476c-31 0-54-24-54-54s23-54 54-54h476c30 0 54 24 54 54s-24 54-54 54z m0-347h-476c-31 0-54-24-54-55s23-54 54-54h476c30 0 54 24 54 54s-24 55-54 55z m-652 722c0 21-18 38-38 38h-163c-21 0-38-17-38-38v-163c0-20 17-38 38-38h163c20 0 38 18 38 38v163z m0-510c0-21-18-39-38-39h-163c-21 0-38 18-38 39v163c0 20 17 38 38 38h163c20 0 38-18 38-38v-163z m-65 125h-98v-87h98v87z m65-473c0-21-18-38-38-38h-163c-21 0-38 17-38 38v163c0 20 17 38 38 38h163c20 0 38-18 38-38v-163z m-65 125h-98v-98h98v98z" horiz-adv-x="1000" />

<glyph glyph-name="checkmark" unicode="&#xe831;" d="M374 67c-13 0-25 5-35 15l-216 216c-20 19-20 50 0 69 19 20 50 20 69 0l183-181 434 433c19 19 50 19 69 0 20-20 20-50 0-70l-468-467c-11-10-23-15-36-15z" horiz-adv-x="1000" />

<glyph glyph-name="chevron-down" unicode="&#xe832;" d="M500 165c-12 0-23 5-31 13l-272 283c-17 17-17 44 1 62 17 16 44 16 62-1l240-250 240 250c17 17 45 17 62 1 18-16 18-45 1-62l-271-283c-9-8-20-13-32-13z" horiz-adv-x="1000" />

<glyph glyph-name="chevron-left" unicode="&#xe833;" d="M672 110c17-16 17-45 1-62-9-9-21-13-32-13-11 0-21 4-30 12l-283 272c-8 8-13 19-13 31s5 23 13 32l283 271c17 17 44 17 62-1 16-17 16-44-1-62l-250-240 250-240z" horiz-adv-x="1000" />

<glyph glyph-name="chevron-right" unicode="&#xe834;" d="M685 350c0-12-5-23-13-31l-283-272c-9-8-19-12-30-12-12 0-23 4-32 13-16 17-16 44 1 62l250 240-250 240c-17 17-17 45-1 62 17 18 45 18 62 1l283-271c8-9 13-20 13-32z" horiz-adv-x="1000" />

<glyph glyph-name="chevron-up" unicode="&#xe835;" d="M772 165c-12 0-23 5-32 13l-240 250-240-250c-16-17-45-17-62-1-18 17-18 45-1 62l272 283c8 8 19 13 31 13s23-5 32-13l271-283c17-17 17-44-1-62-8-7-19-12-30-12z" horiz-adv-x="1000" />

<glyph glyph-name="clipboard" unicode="&#xe836;" d="M837 752h-87-11-64l-17 46c-12 31-43 52-76 52h-155c-33 0-64-21-76-52l-16-46h-74-11-87c-24 0-43-22-43-45v-814c0-23 19-43 43-43h674c24 0 43 20 43 43v814c0 23-19 45-43 45z m-472-87c19 0 35 11 42 27l26 71h145l26-71c7-17 23-27 42-27h34l-31-62c-5-8-15-14-26-14h-237c-10 0-20 5-25 13l-36 63h40z m429-728h-587v728h18l61-108c0-2 1 0 1-2 22-33 59-53 99-53h236c41 0 80 21 101 58 0 1 1 2 1 2l52 103h18v-728z" horiz-adv-x="1000" />

<glyph glyph-name="clock" unicode="&#xe837;" d="M500 850c-276 0-500-224-500-500s224-500 500-500 500 224 500 500-224 500-500 500z m0-913c-228 0-413 185-413 413s185 413 413 413 413-185 413-413-185-413-413-413z m166 309c18-18 18-45 0-62-8-9-19-13-30-13s-22 4-31 13l-135 136c-9 7-13 18-13 30v259c0 24 19 43 43 43s44-19 44-43v-242l122-121z" horiz-adv-x="1000" />

<glyph glyph-name="clockwise" unicode="&#xe838;" d="M945 396l-151-152c-9-9-20-14-32-14s-23 5-32 14l-150 152c-16 17-16 44 0 62 18 16 45 16 62 0l84-85c-11 157-140 282-298 282-164-1-298-138-298-305s134-304 299-304c61 0 120 18 169 53 19 14 47 9 61-11 14-19 8-47-11-61-64-44-140-68-219-68-213 0-385 175-385 391s172 391 385 391c200 0 366-155 384-354l69 70c17 17 44 17 62 0 17-17 17-44 1-61z" horiz-adv-x="1000" />

<glyph glyph-name="cloud" unicode="&#xe839;" d="M774 2c-217 0-575 1-582 1-94 0-175 72-190 171-12 77 21 180 143 235-29 120 40 223 131 265 58 27 121 30 179 11 52-18 97-52 132-101 54 30 118 32 172 3 45-26 88-80 83-163 117-36 163-137 158-224-8-96-80-198-226-198z m-395 609c-24 0-47-6-67-15-63-30-112-104-74-197 4-11 4-24-1-35-5-11-15-19-26-23-129-40-126-128-123-154 8-48 46-97 104-97 0 0 0 0 0 0 4 0 363-1 582-1 90 0 135 59 139 118 4 59-33 127-126 140-12 2-23 8-29 18-7 10-9 23-7 35 12 52-1 92-35 112-28 16-72 15-111-22-9-10-23-14-36-12-15 2-25 11-32 23-43 82-103 110-158 110z" horiz-adv-x="1000" />

<glyph glyph-name="cloud-download" unicode="&#xe83a;" d="M989 367c-6-93-78-193-220-193-66 0-99 0-99 0-24 0-44 21-44 45 0 23 20 44 44 44 0 0 0 0 0 0 0 0 33-1 99-1 86 0 130 55 134 112 5 58-32 122-123 135-11 2-22 8-29 18-6 10-9 23-6 35 12 49-1 88-33 107-27 15-71 15-108-21-9-10-24-14-37-12-13 2-25 11-31 23-61 114-156 120-217 91-60-28-108-99-71-188 4-11 4-24-1-35-6-11-15-19-26-23-129-40-125-125-122-149 6-46 43-93 101-93l133 0c24 0 43-20 43-43 0-24-19-43-43-43 0 0 0 0 0 0l-133 0c-93 0-173 70-187 166-11 75 20 175 138 229-26 116 39 214 128 256 92 44 220 32 306-87 53 30 116 32 168 2 45-25 85-78 82-157 113-35 160-133 154-218z m-340-263l-105-106-2 394c0 24-19 45-43 45 0 0 0 0 0 0-24 0-44-21-44-45l2-393-106 105c-17 18-44 18-62 0-17-17-17-44 0-62l180-180c8-9 19-13 30-13s23 4 30 13l180 179c17 18 17 45 0 62-15 18-43 18-60 1z" horiz-adv-x="1000" />

<glyph glyph-name="cloud-upload" unicode="&#xe83b;" d="M1000 290c-6-94-80-198-225-198-66 0-101 0-101 0-24 0-44 19-44 43 0 24 20 41 44 41 0 0 0 0 0 0 0 0 35 2 101 2 90 0 135 61 139 119 5 60-34 126-126 139-12 2-23 9-29 18-7 10-9 23-7 35 12 51-1 91-35 110-28 16-73 15-110-21-10-9-24-14-37-12-13 3-25 11-32 23-63 119-160 124-224 94-62-30-111-103-73-195 5-11 5-24-1-35-5-11-15-19-26-23-132-40-129-127-126-153 8-48 46-97 104-97l136-1c24 0 44-20 44-44 0-24-20-46-44-46 0 0 0 0 0 0l-134 3c-96 0-175 74-191 173-12 76 21 179 143 233-29 119 39 221 130 263 94 44 225 31 312-89 54 30 119 32 172 2 45-26 87-80 82-162 116-35 163-135 158-222z m-347-36c9-8 20-13 31-13 11 0 21 5 30 13 18 18 18 45 0 62l-184 185c-7 8-18 12-30 12-12 0-23-4-30-13l-184-185c-17-17-17-44 0-62 17-17 44-17 62 0l109 112 1-406c0-24 19-44 43-44 0 0 0 0 0 0 24 0 44 20 44 44l-1 405 109-110z" horiz-adv-x="1000" />

<glyph glyph-name="code" unicode="&#xe83c;" d="M641 35c-12 0-22 4-31 13-16 17-16 44 1 62l250 240-250 240c-17 17-17 45-1 62 16 18 44 18 62 1l282-271c9-9 13-20 13-32s-4-23-13-31l-282-272c-9-8-20-12-31-12z m-251 13c17 17 17 44-1 62l-250 240 250 240c18 17 18 45 1 62-16 18-44 18-62 1l-282-271c-9-9-13-20-13-32s4-23 13-31l282-272c9-8 20-12 31-12 11 0 23 4 31 13z" horiz-adv-x="1000" />

<glyph glyph-name="contract" unicode="&#xe83d;" d="M961-54c17-18 17-45 0-62-9-9-20-13-31-13-10 0-22 4-31 13l-236 236v-112c0-24-19-44-43-44-24 0-44 20-44 44v217c0 12 6 23 13 30 9 8 20 14 32 14h0l217 0c24 0 44-20 44-44s-20-43-44-43c0 0 0 0 0 0l-112 0 235-236z m-342 480h217c24 0 43 20 43 44 0 24-19 43-43 43h-112l241 241c18 18 18 45 0 61-17 18-44 17-61 0l-241-241v112c0 24-19 44-43 44h0c-24 0-44-19-44-43l0-217c0-12 4-22 13-31 8-9 19-13 30-13z m-240 301c-24 0-42-19-42-43v-112l-240 240c-18 16-45 16-62 0-18-17-18-43 0-60l239-238h-111v-1c-22 0-44-21-44-44 0-24 19-44 43-44l217 0v0c11 0 22 4 31 13 9 9 12 20 12 31l0 217c1 22-19 41-43 41z m-2-453h-217c-24 0-44-20-44-44 0-23 20-43 44-43h112l-237-239c-18-18-18-46 0-62 9-9 19-13 31-13 11 0 24 4 33 13l238 236v-112c0-24 17-40 41-40h-1c24 0 44 17 44 41l0 216c0 12-5 24-13 33-8 9-19 14-31 14z" horiz-adv-x="1000" />

<glyph glyph-name="contract-2" unicode="&#xe83e;" d="M440 292c8-8 13-20 13-31l0-227c0-24-19-42-43-42h1c-24 0-41 17-41 41v121l-272-269c-9-9-22-13-33-13s-21 4-30 13c-18 17-18 45 0 62l269 273h-122c-24 0-44 19-44 43 0 24 20 44 44 44h228c12 0 23-6 30-15z m525 523c-17 18-43 18-61 0l-274-275v124c0 24-19 45-44 45h0c-24 0-44-20-44-44l0-228c0-12 5-22 13-30 9-9 20-12 31-12h228c24 0 44 19 44 43 0 24-20 44-44 44h-124l275 272c18 18 18 45 0 61z" horiz-adv-x="1000" />

<glyph glyph-name="conversation" unicode="&#xe83f;" d="M957 589h-424v100c0 19-24 41-42 41h-458c-19 0-33-22-33-41v-278c0-17 15-39 33-39h66l87-95c6-7 15-10 25-10 4 0 5 2 10 4 13 4 19 17 19 31v70h65v-202c0-24 25-48 49-48h298v-133c0-17 9-34 26-40 6-2 10-3 16-3 11 0 22 2 31 10l162 166h70c23 0 43 24 43 48v366c0 24-20 53-43 53z m-746-152c-19 0-37-8-37-26v-22l-37 40c-7 8-14 8-23 8h-49v228h392v-76h-104c-24 0-49-29-49-53v-99h-93z m702-228h-44c-12 0-22-2-31-11l-99-100v73c0 24-23 39-47 39h-301v292h522v-293z m-459 195c0 19 16 33 33 33h208c18 0 32-14 32-33s-15-32-32-32h-208c-18 0-33 14-33 32z m317-22c-7 6-10 14-10 22 0 9 3 18 10 23 12 12 34 12 46 0 7-6 10-14 10-23 0-8-3-17-10-22-6-7-14-10-22-10-10 1-19 4-24 10z" horiz-adv-x="1000" />

<glyph glyph-name="copy" unicode="&#xe840;" d="M500 612c-8 8-17 10-27 10h-325c-22 0-50-13-50-34v-688c0-22 28-49 50-49h515c22 0 33 28 33 49v496c0 9-1 18-9 26l-187 190z m108-218h-141v140l141-140z m-423-457v609h206v-187c0-22 20-42 42-42h187v-380h-435z m711 717l-189 190c-7 5-13 6-22 6h-325c-19 0-34-10-34-27v-104c0-19 14-33 33-33 18 0 32 15 32 33v66h229v-184c0-18 15-34 33-34h184v-402h-45c-18 0-32-14-32-32s15-33 32-33h83c19 0 27 16 27 35v495c0 9-1 18-6 24z m-211 120l140-141h-140v141z" horiz-adv-x="1000" />

<glyph glyph-name="crop" unicode="&#xe841;" d="M965 744c18 16 18 44 0 61-16 18-44 17-62 0l-129-129h-546v79c0 24-19 44-43 44s-44-20-44-44v-79h-76c-24 0-43-19-43-43s19-44 43-44h76v-542c0-1 1-2 1-3 0-3 2-4 2-6 0-1 1-2 1-4 0-1 1-4 1-5 1-1 1-2 2-4 1-1 1-2 2-3 1-1 2-3 3-5 1-1 1-1 2-2 0 0 0 0 0 0 3-2 5-3 7-5 1 0 1-1 2-1 2-1 5-2 7-4 1 0 2-1 4-1 1 0 3-1 4-1 4-1 6-1 9-1 0 0 0 0 0 0h562v-76c0-24 20-43 44-43s43 19 43 43v76h76c24 0 44 20 44 44s-20 43-44 43h-76v528l128 127z m-280-155l-457-440v440h457z m65-500h-456l456 444v-444z" horiz-adv-x="1000" />

<glyph glyph-name="cross" unicode="&#xe842;" d="M769 151c19-19 19-50 0-69-10-10-22-15-35-15-13 0-25 5-35 15l-199 198-199-198c-10-10-22-15-35-15s-25 5-34 15c-20 19-20 50 0 69l198 199-198 199c-20 20-20 50 0 70 19 19 50 19 69 0l199-199 199 199c20 19 50 19 70 0 19-20 19-50 0-70l-199-199 199-199z" horiz-adv-x="1000" />

<glyph glyph-name="crosshair" unicode="&#xe843;" d="M501 850c0 0 0 0 0 0-1 0-1 0 0 0-1 0-1 0 0 0-277 0-501-224-501-500 0-275 224-500 499-500 0 0 0 0 0 0 0 0 0 0 0 0 0 0 0 0 0 0 276 0 500 224 500 500 1 275-223 500-498 500z m43-911v112c0 24-20 44-44 44s-43-20-43-44v-112c-196 21-347 175-368 368h112c24 0 44 19 44 43s-20 44-44 44h-112c21 193 172 346 368 367v-112c0-24 19-44 43-44s44 20 44 44v112c195-21 346-174 367-367h-112c-24 0-44-20-44-44s20-43 44-43h112c-21-194-172-347-367-368z" horiz-adv-x="1000" />

<glyph glyph-name="cutlery" unicode="&#xe844;" d="M900-33c17-17 17-44 0-62-9-7-20-12-30-12-11 0-22 5-31 13l-345 346-342-346c-8-8-19-13-30-13-11 0-22 5-31 13-17 18-17 45 0 62l342 346-59 58-9-9c-27-27-64-42-103-42s-76 15-103 42l-146 142c-17 18-17 45 0 62s45 18 62 0l145-143c10-11 26-17 42-17s30 6 42 17l10 10-188 185c-17 17-17 44 0 61 18 18 45 18 62 0l186-185 11 10c23 23 23 61 0 85l-145 143c-17 17-17 44 0 62 18 17 45 17 62 0l144-144c57-57 57-150 0-207l-11-11 57-58 384 389c8 9 20 13 31 13 10 0 22-4 30-13 97-97 80-232-41-354l-147-147c-17-17-45-17-62 0-17 17-17 45 0 62l147 147c88 88 86 154 67 194l-347-352 346-347z" horiz-adv-x="1000" />

<glyph glyph-name="device-desktop" unicode="&#xe845;" d="M917 774h-834c-46 0-83-37-83-83v-481c0-46 37-88 83-88h276v-45l-83-66c-15-12-22-35-15-52 6-18 23-33 41-33h392c18 0 35 15 42 33 6 17 1 39-13 51l-82 67v45h276c46 0 83 42 83 88v481c0 46-37 83-83 83z m-339-748l26-24h-213l29 25c8 8 15 21 15 33v62h130v-63c0-11 5-25 13-33z m335 183h-826v478h826v-478z" horiz-adv-x="1000" />

<glyph glyph-name="device-mobile" unicode="&#xe846;" d="M574 24c0-19-14-33-33-33h-83c-19 0-33 14-33 33s14 33 33 33h83c19 0 33-15 33-33z m209 743v-834c0-46-37-83-83-83h-400c-46 0-83 37-83 83v834c0 46 37 83 83 83h400c46 0 83-37 83-83z m-479-4v-576h392v576h-392z m392-826v185h-392v-185h392z" horiz-adv-x="1000" />

<glyph glyph-name="device-tablet" unicode="&#xe847;" d="M561 13c0-18-14-33-33-33h-56c-19 0-33 15-33 33s14 33 33 33h56c19 0 33-14 33-33z m341 754v-834c0-46-37-83-82-83h-640c-45 0-82 37-82 83v834c0 46 37 83 82 83h640c45 0 82-37 82-83z m-717-4v-598h630v598h-630z m630-826v163h-630v-163h630z" horiz-adv-x="1000" />

<glyph glyph-name="direction" unicode="&#xe848;" d="M542-107c-2 0-4 0-6 2-20 3-35 18-36 38l-38 378-379 38c-20 2-36 17-38 36-4 19 7 38 25 47l826 370c16 8 36 5 49-8 13-14 16-33 8-49l-370-827c-8-15-24-25-41-25z m-289 526l251-25c21-3 37-19 40-40l26-251 256 573-573-257z" horiz-adv-x="1000" />

<glyph glyph-name="disc" unicode="&#xe849;" d="M500 850c-276 0-500-224-500-500s224-500 500-500 500 224 500 500-224 500-500 500z m0-87c228 0 413-185 413-413 0-58-12-113-34-164l-244 122c15 49 3 104-35 143l0 0c-39 39-95 50-143 35l-88 178c-8 16-28 23-44 15-16-7-23-27-15-43l90-183c0 0 0 0-1-1 0 0-1-1-1-1l-247 121c74 115 202 191 349 191z m-47-366c13 13 30 19 47 19s34-6 47-19c26-26 26-68 0-94-26-26-68-26-94 0-25 26-25 68 0 94z m269-395l-57 115c-7 17-27 23-43 16-17-8-23-28-15-44l57-116c-50-22-106-35-164-35-228-1-413 184-413 412 0 58 12 113 34 164l244-120c-15-49-3-105 35-144 27-27 64-41 100-41s73 14 100 41c0 0 1 1 1 1l247-123c-32-50-75-93-126-126z m-97 201c7-6 11-16 11-27 0-10-4-19-11-27s-17-11-27-11-20 4-27 11-11 17-11 27 4 20 11 27c14 14 40 14 54 0z" horiz-adv-x="1000" />

<glyph glyph-name="document" unicode="&#xe84a;" d="M826 828h-652c-24 0-44-19-44-43v-870c0-24 20-43 44-43h652c24 0 44 19 44 43v870c0 24-20 43-44 43z m-43-869h-566v782h566v-782z m-462 288c0 20 17 38 38 38h128c21 0 38-18 38-38s-17-38-38-38h-128c-22 0-38 17-38 38z m5 174c0 20 18 38 38 38h259c21 0 38-18 38-38s-16-38-38-38h-259c-20 0-38 17-38 38z m0 163c0 20 18 38 38 38h259c21 0 38-18 38-38s-16-38-38-38h-259c-20 0-38 17-38 38z m323-313c6-7 11-17 11-27 0-10-5-20-11-28s-17-11-27-11-20 5-27 11c-8 7-11 17-11 28 0 9 4 19 11 27 14 14 40 14 54 0z" horiz-adv-x="1000" />

<glyph glyph-name="document-delete" unicode="&#xe84b;" d="M857 573l-241 242c-8 9-19 13-31 13h-411c-24 0-44-19-44-43v-870c0-24 20-43 44-43h652c24 0 44 19 44 43v627c0 12-5 23-13 31z m-74-49h-218v217h2l216-217z m-566-565v782h261v-259c0-24 19-45 43-45h262v-478h-566z m408 325l-72-72 72-72c15-15 15-39 0-53-8-8-17-11-27-11-10 0-20 3-27 11l-71 71-71-72c-7-8-17-11-27-11-10 0-19 3-27 11-15 15-15 39 0 53l72 72-72 72c-15 15-15 39 0 53 15 15 39 15 53 0l71-72 71 72c15 15 39 15 53 0 17-13 17-37 2-52z" horiz-adv-x="1000" />

<glyph glyph-name="document-edit" unicode="&#xe84c;" d="M936 750l-77 79c-7 7-15 10-24 10h0c-9 0-18-3-23-10l-455-462c-4-3-6-6-8-10l-51-130c-4-12-2-26 7-35 7-6 15-9 23-9 5 0 8 1 12 2l129 51c4 2 7 4 10 8l456 461c14 12 14 33 1 45z m-497-456l-52-21 21 53 427 434 32-33-428-433z m333 39v-440c0-23-22-43-46-43h-617c-24 0-44 20-44 43v829c0 24 20 41 44 41h452c24 0 43-19 43-43s-19-44-43-44h-409v-739h533v396c0 24 19 43 43 43s44-19 44-43z" horiz-adv-x="1000" />

<glyph glyph-name="document-new" unicode="&#xe84d;" d="M857 573l-241 242c-8 9-19 13-31 13h-411c-24 0-44-19-44-43v-870c0-24 20-43 44-43h652c24 0 44 19 44 43v627c0 12-5 23-13 31z m-74-49h-218v217h2l216-217z m-566-565v782h261v-259c0-24 19-45 43-45h262v-478h-566z" horiz-adv-x="1000" />

<glyph glyph-name="document-remove" unicode="&#xe84e;" d="M857 573l-241 242c-8 9-19 13-31 13h-411c-24 0-44-19-44-43v-870c0-24 20-43 44-43h652c24 0 44 19 44 43v627c0 12-5 23-13 31z m-74-49h-218v217h2l216-217z m-566-565v782h261v-259c0-24 19-45 43-45h262v-478h-566z m419 255c0-20-17-38-38-38h-196c-20 0-38 18-38 38s16 38 38 38h196c22 0 38-17 38-38z" horiz-adv-x="1000" />

<glyph glyph-name="dot" unicode="&#xe84f;" d="M500 274c-20 0-40 9-54 23-14 14-22 33-22 53 0 20 9 39 22 54 14 15 33 22 54 22 20 0 39-9 53-22 14-14 23-33 23-54 0-20-9-39-23-53-14-14-33-23-53-23z" horiz-adv-x="1000" />

<glyph glyph-name="dots-2" unicode="&#xe850;" d="M370 274c-20 0-41 9-55 23-14 14-21 33-21 53 0 20 8 39 21 54 14 15 34 22 55 22 19 0 39-9 53-22 14-14 23-33 23-54 0-20-9-39-23-53-14-14-34-23-53-23z m314 23c14 14 23 33 23 53 0 20-9 39-23 54-14 15-34 22-54 22-19 0-40-9-54-22-14-14-22-33-22-54 0-20 9-39 22-53 14-14 34-23 54-23 20 0 40 9 54 23z" horiz-adv-x="1000" />

<glyph glyph-name="dots-3" unicode="&#xe851;" d="M228 274c-19 0-40 9-54 23-14 14-22 33-22 53 0 20 9 39 22 54 14 15 34 22 54 22 20 0 39-9 54-22 14-14 22-33 22-54 0-20-8-39-22-53-15-14-34-23-54-23z m325 23c14 14 23 33 23 53 0 20-9 39-23 54-14 15-33 22-53 22-20 0-40-9-54-22-14-14-22-33-22-54 0-20 9-39 22-53 14-14 33-23 54-23 20 0 39 9 53 23z m272 0c14 14 23 33 23 53 0 20-9 39-23 54-14 15-34 22-53 22-20 0-40-9-55-22-14-14-21-33-21-54 0-20 8-39 21-53 15-14 34-23 55-23 19 0 39 9 53 23z" horiz-adv-x="1000" />

<glyph glyph-name="download" unicode="&#xe852;" d="M967 211v-296c0-30-23-54-54-54h-826c-30 0-54 24-54 54v296c0 30 24 54 54 54s54-24 54-54v-241h718v241c0 30 24 54 54 54s54-24 54-54z m-506-67c10-11 24-17 39-17s28 6 39 17l216 221c21 22 21 56-1 77-21 21-55 21-77-1l-123-127v471c0 30-24 54-54 54s-54-24-54-54v-471l-124 126c-21 22-56 22-77 1-22-20-22-55-1-77l217-220z" horiz-adv-x="1000" />

<glyph glyph-name="duplicate" unicode="&#xe853;" d="M957 107h-657c-24 0-43 19-43 43v657c0 23 19 43 43 43h657c23 0 43-20 43-43v-656c0-25-20-44-43-44z m-613 88h568v567h-568v-567z m378-293v115c0 19-15 33-33 33s-32-15-32-33v-102h-591v590h101c19 0 33 16 33 33s-15 33-33 33h-115c-28 0-52-23-52-52v-619c0-27 23-50 52-50h619c28 0 51 23 51 52z" horiz-adv-x="1000" />

<glyph glyph-name="enter" unicode="&#xe854;" d="M967 709v-718c0-24-19-43-43-43h-566c-24 0-43 19-43 43v199c0 24 20 44 44 44s43-20 43-44v-155h478v630h-478v-155c0-24-19-44-43-44s-44 20-44 44v199c0 24 19 43 43 43h566c24 0 43-19 43-43z m-462-499c-17-18-16-45 0-62 9-9 20-13 31-13 11 0 23 4 30 13l171 172c16 17 16 44 0 60l-170 174c-17 18-44 18-62 0-17-17-17-44 0-62l97-97-526-1c-24 0-43-20-43-44 0-24 19-43 43-43 0 0 0 0 0 0l526 1-97-98z" horiz-adv-x="1000" />

<glyph glyph-name="exit" unicode="&#xe855;" d="M652 190v-199c0-24-17-43-41-43h-567c-24 0-44 19-44 43v718c0 24 20 43 44 43h567c24 0 41-19 41-43v-199c0-24-19-44-43-44s-44 20-44 44v155h-478v-630h478v155c0 24 20 44 44 44s43-20 43-44z m335 193l-170 171c-17 18-44 18-62 0-17-17-17-44 0-62l97-97-527-1c-24 0-43-20-43-44 0-24 19-43 43-43 0 0 0 0 0 0l527 1-97-98c-17-18-16-45 0-62 9-9 20-13 31-13 11 0 23 4 30 13l171 172c17 18 17 45 0 63z" horiz-adv-x="1000" />

<glyph glyph-name="expand" unicode="&#xe856;" d="M978 785l0-218c0-23-19-43-43-43l0 0c-24 0-44 20-44 43v112l-252-252c-9-8-19-13-30-13-11 0-22 5-31 13-17 18-17 45 0 62l251 252h-112c-23 0-43 20-43 44 0 24 20 43 43 43h218c12 0 23-4 30-13 9-7 13-18 13-30z m-43-609c-24 0-44-19-44-43v-112l-247 245c-18 18-46 18-64 0-17-17-17-44-1-62l246-245h-112c0 0 0 0 0 0-24 0-43-20-43-44s19-43 43-43l217 0 0 0c12 0 25 4 33 13 9 8 15 19 15 30v218c0 24-19 43-43 43z m-578 93l-248-248v112c0 24-20 43-44 43h0c-24 0-43-19-43-43l0-218c0-12 4-23 13-30 9-9 19-13 31-13h218c24 0 43 19 43 43 0 24-19 44-43 44h-113l248 248c17 17 16 44 0 62-17 17-45 17-62 0z m-186 468l112 0h0c24 0 43 20 43 43s-19 44-43 44l-218 0h0c-12 0-23-4-30-13-9-8-13-19-13-31l0-217c0-24 19-43 43-43 24 0 44 19 44 43v113l251-251c9-9 19-13 30-13 11 0 22 4 31 13 17 17 17 45 0 62l-250 250z" horiz-adv-x="1000" />

<glyph glyph-name="expand-2" unicode="&#xe857;" d="M978 785l0-228c0-24-19-44-43-44l0 0c-24 0-44 20-44 44v122l-275-274c-8-8-19-13-30-13-11 0-22 5-31 13-17 18-17 45 0 62l274 274h-122c-24 0-44 20-44 44 0 24 20 43 44 43h228c12 0 23-4 30-13 9-7 13-18 13-30z m-599-495l-270-269v123c0 23-20 43-44 43l0 0c-24 0-43-20-43-43l0-229c0-12 4-23 13-30 7-9 18-13 30-13l229 0c23 0 43 19 43 43 0 24-20 44-43 44h-123l270 270c18 18 18 45 0 62-17 17-45 17-62-1z" horiz-adv-x="1000" />

<glyph glyph-name="experiment" unicode="&#xe858;" d="M974 805c-8 15-23 23-38 23h-872c-15 0-30-8-38-23-7-14-4-31 4-44l340-498v-329c0-34 22-62 57-62h146c34 0 57 27 57 62v329l340 498c8 13 12 30 4 44z m-421-505c-5-6-9-15-9-24v-317h-87v317c0 9-5 18-10 24l-103 151c21 7 47 13 76 12 33 0 56-6 81-13 26-6 52-13 89-14 22 0 42 1 59 3l-96-139z m159 233c0 0 0 0 0 0-1 0-47-21-122-20-27 0-48 6-70 12-26 7-57 14-100 15-49 0-93-12-122-23l-151 224h707l-142-208z m-89 71c-8 8-13 20-13 31 0 12 4 23 13 30 7 8 19 13 30 13 12 0 23-4 31-13 7-8 13-19 13-30 0-12-5-23-13-31-9-7-20-13-31-13-11 0-23 6-30 13z" horiz-adv-x="1000" />

<glyph glyph-name="export" unicode="&#xe859;" d="M794 19v-55c0-24-21-38-45-38h-710c-24 0-39 13-39 38v537c0 24 15 46 39 46h127c24 0 44-20 44-44s-20-43-44-43h-79v-447h620v6c0 23 19 43 43 43s44-20 44-43z m193 405l-270-275c-13-13-31-16-47-10-18 8-29 23-29 41v119c-87 2-295-7-371-140-8-14-23-23-38-23-4 0-8 0-11 1-20 5-33 23-33 42 0 7 0 175 126 300 80 82 186 125 327 133v118c0 18 11 34 28 41 17 6 35 3 48-10l271-275c16-17 16-45-1-62z m-93 31l-166 168v-53c0-24-18-44-43-44-135 0-238-36-309-107-32-33-54-69-68-104 102 61 231 72 311 72 41 0 68-3 71-3 22-2 38-22 38-44v-53l166 168z" horiz-adv-x="1000" />

<glyph glyph-name="feed" unicode="&#xe85a;" d="M671-44c-1-32-29-57-60-57-1 0-2 0-2 0-33 1-59 29-58 62 7 154-30 269-110 344-126 119-324 99-326 99-32-3-62 21-66 54-3 32 20 62 53 66 10 1 253 26 421-129 106-100 155-248 148-439z m-470 232c-37 0-74-15-100-41-26-26-41-63-41-100s15-74 41-100c26-26 63-42 100-42 37 0 74 16 100 42 26 26 41 63 41 100s-15 74-41 100c-26 26-63 41-100 41z m528 421c-249 231-612 190-628 189-32-4-56-34-52-66 4-33 34-57 66-53 4 0 324 36 533-157 131-122 192-310 181-560-1-33 24-61 58-62 1 0 2 0 2 0 32 0 59 25 60 58 13 284-61 504-220 651z" horiz-adv-x="1000" />

<glyph glyph-name="flag" unicode="&#xe85b;" d="M944 849c-21 4-42-7-49-26-12-27-128-147-226-151-57-2-109 37-165 78-71 52-151 111-253 91-151-28-222-164-225-170-4-9-5-20-3-30l43-194c0 0 0 0 0 0l128-564c4-21 22-34 42-34 3 0 6 0 10 1 24 5 38 28 32 52l-74 330c20 30 75 105 162 125 53 12 94-3 142-18 53-17 114-38 192-20 164 38 275 233 278 488 0 20-14 38-34 42z m-264-446c-54-12-96 2-145 19-53 17-113 38-188 20-74-16-130-59-168-101l-4 20-64 283c18 28 69 95 155 111 66 12 121-28 185-76 62-45 134-97 220-94 73 3 148 45 206 93-25-130-89-250-197-275z" horiz-adv-x="1000" />

<glyph glyph-name="flashlight" unicode="&#xe85c;" d="M465 350c0-18-14-33-32-33h-83c-18 0-33 15-33 33s15 33 33 33h83c18 0 32-14 32-33z m535 253v-507c0-34-27-62-62-62h-104c-179 1-286 99-323 142h-449c-34 0-62 28-62 62v225c0 35 28 61 62 61h448c37 43 144 141 324 141h104c35 0 62-27 62-62z m-913-340h76v174h-76v-174z m685-137v448c-131-22-208-117-208-119-9-11-18-18-32-18h-304v-174h302c15 0 25-6 33-18 3-5 78-97 209-119z m141 452h-76v-456h76v456z" horiz-adv-x="1000" />

<glyph glyph-name="folder" unicode="&#xe85d;" d="M870 600h-375l-48 77c-8 13-22 21-37 21h-280c-23 0-43-20-43-44v-608c0-24 20-44 43-44h740c24 0 43 20 43 44v509c0 24-19 45-43 45z m-44-511h-652v522h211l48-77c7-13 21-21 37-21h356v-424z" horiz-adv-x="1000" />

<glyph glyph-name="folder-open" unicode="&#xe85e;" d="M990 430c-8 11-20 18-33 18h-55v118c0 21-15 34-36 34h-380l-49 80c-7 11-20 18-33 18h-280c-21 0-37-12-37-33v-217h-43c-14 0-27-7-34-16s-12-24-9-37l81-369c4-19 21-35 42-35h742c20 0 37 14 43 33l90 370c3 13 0 26-9 36z m-827 192h220l49-81c6-11 19-17 32-17h362v-76h-663v174z m669-544h-673l-61 283h803l-69-283z" horiz-adv-x="1000" />

<glyph glyph-name="forward" unicode="&#xe85f;" d="M141 35c-3 0-7 0-11 1-19 5-32 22-32 42 0 7 1 173 125 297 79 79 188 123 325 130v117c0 17 11 33 27 40 16 7 35 3 48-10l267-272c17-17 17-44 0-60l-267-272c-12-13-32-16-48-10-16 7-27 23-27 40v118c-87 2-294-7-369-139-7-13-22-22-38-22z m383 249c40 0 68-4 72-4 21-2 39-20 39-43v-52l163 165-163 165v-52c0-24-20-43-44-43-133 0-237-36-306-107-32-31-53-67-69-101 101 61 230 72 308 72z" horiz-adv-x="1000" />

<glyph glyph-name="gaming" unicode="&#xe860;" d="M661 514c9-9 14-22 14-35 0-13-5-25-14-34-9-9-22-15-35-15-13 0-26 6-35 15-8 8-14 21-14 34s6 25 14 35c9 9 22 14 35 14 13 0 26-5 35-14z m76-68c-13 0-25-6-35-14-8-9-14-22-14-35 0-13 6-26 14-35 9-9 22-14 35-14 13 0 26 5 35 14 8 9 14 22 14 35 0 13-6 25-14 35-9 8-22 14-35 14z m-370 24h-30v28c0 15-12 27-27 27s-27-12-27-27v-28h-29c-15 0-27-12-27-28s12-27 27-27h29v-28c0-15 12-27 27-27s27 12 27 27v28h30c16 0 28 12 28 27s-12 28-28 28z m633-338c0-47-26-85-67-102-42-15-107-8-166 58-28 33-76 91-102 124-139-33-271-12-329 0-26-33-74-91-102-124-43-48-88-65-126-65-16 0-29 2-41 6-41 16-67 55-67 101 0 129 83 330 109 390-9 30-6 62 11 90 20 36 57 63 90 65 28 2 66-14 91-26 49 9 203 31 398 0 24 12 63 28 91 26 32-2 70-29 90-65 17-28 21-60 11-90 26-59 109-260 109-388z m-87 0c0 129-108 368-109 370-5 12-5 26 1 38 5 9 5 17 2 24-6 13-19 23-24 25-10-1-36-12-57-23-9-4-18-6-28-4-223 39-394 1-395 0-9-2-20-1-30 4-21 11-47 22-57 23-5-3-18-12-24-25-3-9-3-15 2-24 5-12 6-26 1-38 0-2-108-241-108-370 0-10 4-17 11-20 15-5 42 3 69 34 38 43 117 141 118 142 11 14 29 20 45 14 3 0 172-48 339 0 4 1 7 2 11 2 14 0 27-5 34-16 1-1 80-99 118-142 27-32 54-41 69-34 8 3 12 10 12 20z" horiz-adv-x="1000" />

<glyph glyph-name="gear" unicode="&#xe861;" d="M500 140c-115 0-210 94-210 210 0 115 94 210 210 210 115 0 210-94 210-210 0-115-95-210-210-210z m0 343c-73 0-133-60-133-133 0-73 60-133 133-133 73 0 133 60 133 133 0 73-60 133-133 133z m0-633h-5c-38 0-71 4-73 4-18 2-31 16-34 33l-11 78c-24 8-47 18-68 30l-61-47c-14-11-33-10-47 0-1 1-27 22-54 48l-5 4c-27 27-46 53-47 54-11 15-11 33 0 47l47 63c-12 22-20 46-28 70l-76 11c-17 2-30 16-33 33-1 1-5 34-5 72v5c0 39 4 71 4 73 3 18 16 31 33 34l78 11c8 24 18 47 30 68l-47 61c-11 14-10 33 0 47 1 1 22 27 48 54l4 5c27 27 53 46 54 47 15 11 33 11 47 0l63-47c22 12 46 20 70 28l11 76c2 17 16 30 33 33 1 1 34 5 72 5h5c39 0 71-4 73-4 18-2 31-16 34-33l11-78c24-8 47-18 68-30l61 47c14 11 33 10 47 0 1-1 27-22 54-48l5-4c27-27 46-53 47-54 11-14 11-33 0-47l-46-63c12-22 20-46 28-70l76-11c17-2 31-16 33-33 0-1 4-35 4-73v-5c0-39-4-71-4-73-2-18-16-31-33-34l-78-11c-8-24-18-47-30-68l47-62c11-14 10-33 0-47-1-1-22-27-48-54l-4-5c-27-27-53-47-54-48-14-11-33-11-47 0l-63 49c-22-12-46-20-70-28l-11-76c-2-17-16-31-33-33-1 0-34-4-72-4z m-39 78c10-1 22-1 34-1h5c12 0 24 0 34 1l10 72c2 16 14 28 29 33 34 7 66 20 96 39 8 5 19 6 29 4 5-1 11-4 15-7l58-44c7 7 16 14 25 23l4 4c9 9 16 18 23 25l-44 58c-9 13-9 30-2 43 19 29 32 60 39 93 4 16 17 29 33 31l73 10c1 10 1 22 1 34v4c0 12 0 24-1 34l-72 10c-15 2-28 14-33 29-7 34-20 65-38 94-2 3-3 6-4 9-4 12-2 26 5 36l45 59c-6 7-14 16-23 25l-4 4c-9 9-18 16-25 23l-58-44c-14-9-32-9-45 0-29 18-60 31-93 40-15 3-27 16-29 32l-10 73c-10 1-22 1-34 1h-4c-12 0-24 0-34-1l-9-74c-3-17-16-30-33-33-33-7-64-20-92-38-9-5-20-6-30-4-5 1-11 4-15 8l-57 43c-7-6-16-14-25-23l-4-4c-9-9-16-17-23-25l44-58c10-13 10-29 2-43-1-1-1-2-2-3-18-29-31-60-38-93-4-15-17-27-33-29l-73-10c-1-10-1-22-1-34v-4c0-12 0-24 1-34l72-9c17-3 30-16 33-33 0 0 0-1 0-1 7-33 20-63 38-91 5-10 7-22 3-33-1-4-4-9-8-13l-42-57c6-7 14-16 23-25l4-4c9-9 18-16 25-23l58 44c14 11 35 9 48-1 28-18 58-30 90-38 15-4 27-17 29-33l10-71z" horiz-adv-x="1000" />

<glyph glyph-name="graduation" unicode="&#xe862;" d="M974 508l-457 205c-12 6-25 6-35 0l-457-205c-14-8-25-22-25-39 0-17 11-32 26-40l39-18v-152c0-15 12-27 27-27s28 12 28 27v124l65-35v-185c0-8 2-14 6-21 5-6 104-154 304-154 205 0 300 149 304 154 3 6 6 13 6 20v180l173 88c16 8 24 23 24 40-2 16-13 30-28 38z m-246-333c-21-26-95-111-233-111-135 0-212 84-234 111v135l219-112c7-3 14-4 20-4s14 1 21 4l207 105v-128z m-228 110l-356 180 356 161 357-161-357-180z m-380-90c7-8 13-20 13-31 0-11-5-23-13-30-8-8-20-13-31-13s-23 4-30 13c-8 7-13 19-13 30 0 11 4 23 13 31 7 7 19 13 30 13s22-5 31-13z" horiz-adv-x="1000" />

<glyph glyph-name="graph-bar" unicode="&#xe863;" d="M794-117c-36 0-66 29-66 65v804c0 36 30 65 66 65s65-29 65-65v-804c0-36-30-65-65-65z m-229 65v539c0 36-29 65-65 65s-65-29-65-65v-539c0-36 29-65 65-65s65 29 65 65z m-293 0v274c0 36-30 65-65 65s-66-29-66-65v-274c0-36 30-65 66-65s65 29 65 65z" horiz-adv-x="1000" />

<glyph glyph-name="graph-line" unicode="&#xe864;" d="M65-41c-10 0-19 2-28 7-26 15-34 49-18 75l132 222c10 15 26 26 45 26 18 1 36-7 46-23l57-78 120 204c8 16 26 27 43 28 18 1 36-8 47-22l104-140 275 456c15 26 49 34 75 19 26-16 34-49 19-75l-317-525c-10-16-26-25-43-26-19-2-36 7-47 21l-104 139-121-204c-10-16-26-26-45-27-18-1-35 8-46 23l-57 78-90-151c-10-18-28-27-47-27z" horiz-adv-x="1000" />

<glyph glyph-name="graph-pie" unicode="&#xe865;" d="M365 446h-327c-21 0-38 17-38 38 0 202 164 366 365 366 21 0 38-17 38-38v-327c1-22-16-39-38-39z m-286 77h249v248c-129-17-232-120-249-248z m455-673c-258 0-467 200-467 447 0 24 20 43 44 43h399v399c0 24 19 44 43 44 243 0 447-213 447-467 0-256-210-466-466-466z m-376 403c22-178 182-316 376-316 208 0 379 171 379 379 0 191-141 354-316 376v-395c0-24-20-44-44-44h-395z" horiz-adv-x="1000" />

<glyph glyph-name="headset" unicode="&#xe866;" d="M967 385l-1-275c0-24-19-43-43-43 0 0 0 0 0 0-24 0-44 19-44 43l1 275c0 101-39 195-110 267-72 71-167 111-269 111 0 0-1 0-1 0-209 0-379-168-380-376l0-276c0-24-20-44-44-44 0 0 0 0 0 0-24 0-43 20-43 44l1 276c0 255 210 463 466 463 0 0 1 0 1 0 125 0 243-49 329-137 90-88 137-204 137-328z m-569-23c7-8 11-15 11-25l-1-440c0-21-18-36-38-36 0 0 0 0 0 0-144 0-191 82-196 128 0 1 0 0 0 2l0 248c0 1 0 2 0 5 5 44 53 128 196 128 0 0 1 0 1 0 9 0 19-2 27-10z m-65-67c-69-11-81-51-83-59l-1-243c2-8 14-47 83-58l1 360z m494-56l1-247c0-1 0-2 0-3-5-44-52-128-195-128 0 0 0 0 0 0-21 0-38 14-38 36l-1 438c0 10 4 19 10 26 8 8 17 11 28 11 0 0 1 0 1 0 142 0 190-84 195-130-1-1-1-1-1-3z m-75-246l-1 243c-2 9-14 48-82 59l1-360c69 12 80 51 82 58z" horiz-adv-x="1000" />

<glyph glyph-name="heart" unicode="&#xe867;" d="M942 611c-43 99-138 163-238 163-101 0-166-45-204-92-38 47-103 92-204 92-100 0-195-64-238-163-47-103-28-217 53-307 190-214 359-365 361-366 8-8 18-11 29-11s21 3 29 11c3 1 170 153 361 366 79 90 98 204 51 307z m-117-249c-141-158-270-282-325-334-55 52-184 175-325 334-56 64-71 141-39 214 30 66 94 111 160 111 129 0 158-97 162-109 4-19 21-32 41-32 0 0 0 0 0 0 20 0 37 14 42 32 4 11 33 109 162 109 66 0 130-45 160-112 33-72 19-149-38-213z m-11 126c1-21-14-39-36-40-1 0-2 0-2 0-19 0-37 15-38 36-4 62-44 71-52 73-21 3-35 21-33 42 4 21 23 35 44 33 38-6 111-43 117-144z m-52-63c8-9 13-20 13-30 0-12-4-23-13-31-8-9-20-13-30-13-11 0-23 4-31 13-7 8-13 20-13 31 0 10 4 22 13 30 8 8 20 13 31 13 10-1 21-5 30-13z" horiz-adv-x="1000" />

<glyph glyph-name="help" unicode="&#xe868;" d="M853 703c-94 95-219 147-353 147 0 0 0 0 0 0-134 0-259-52-353-147-95-94-147-219-147-353s52-259 147-353c94-95 219-147 353-147 134 0 259 52 353 147 95 94 147 219 147 353 0 134-52 259-147 353z m-98-292l149 23c6-27 9-56 9-84 0-28-3-56-9-84l-149 23c9 40 9 82 0 122z m131 87l-154-24c-12 23-28 43-46 62-19 18-40 35-62 46l24 154c53-21 103-52 144-94 42-42 73-91 94-144z m-386-324c-47 0-91 18-124 51-34 34-51 77-51 124s19 91 51 124c35 35 79 51 124 51s90-17 124-51c34-34 51-77 51-124 0-47-18-91-51-124-33-33-77-51-124-51z m0 589c28 0 57-3 84-9l-23-149c-40 10-82 10-122 0l-23 149c28 6 56 9 84 9z m-292-121c41 42 91 74 144 94l24-154c-23-12-43-28-62-46-18-19-34-40-47-62l-154 24c22 53 53 102 95 144z m-121-292c0 28 3 57 9 84l149-23c-5-20-8-40-8-61 0-21 2-41 8-61l-149-23c-6 28-9 56-9 84z m27-148l155 24c11-23 27-43 46-62 19-18 40-34 62-47l-24-154c-53 21-103 52-144 94-43 43-74 92-95 145z m386-265c-28 0-56 3-84 9l23 149c20-5 40-8 61-8h0c21 0 41 2 61 8l23-149c-27-6-56-9-84-9z m292 121c-41-42-91-74-144-94l-24 155c23 11 43 27 62 46 18 19 35 40 46 62l154-24c-21-54-52-103-94-145z" horiz-adv-x="1000" />

<glyph glyph-name="home" unicode="&#xe869;" d="M957 317c-11 0-22 5-31 12l-426 417-426-417c-17-16-45-16-62 1-16 18-16 45 1 62l457 446c17 16 43 16 60 0l457-446c17-16 17-44 1-62-9-8-21-13-31-13z m-96-424v426c0 23-20 43-44 43-23 0-43-20-43-43v-382h-136v233c0 31-26 57-58 57h-160c-32 0-58-26-58-57v-233h-136v382c0 23-19 43-43 43s-44-20-44-43v-426c0-23 20-43 44-43h222c24 0 44 20 44 43v247h103v-247c0-23 20-43 44-43h223c23 0 42 20 42 43z" horiz-adv-x="1000" />

<glyph glyph-name="hourglass" unicode="&#xe86a;" d="M848-41h-44v114c0 63-63 116-124 168-20 18-50 44-60 57v105c10 12 40 39 60 57 61 51 124 104 124 167v114h44c24 0 43 20 43 44s-19 43-43 43h-696c-24 0-43-19-43-43s19-44 43-44h44v-114c0-63 63-116 124-168 20-18 50-45 60-57v-105c-10-12-40-39-60-57-61-51-124-104-124-167v-114h-44c-24 0-43-20-43-44s19-43 43-43h696c24 0 43 19 43 43s-19 44-43 44z m-565 114c0 23 61 75 93 102 52 45 91 77 91 117v116c0 41-39 74-91 118-32 27-93 78-93 102v113h434v-114c0-23-60-75-93-102-52-45-91-77-91-117v-114c0-42 39-74 91-119 33-27 93-78 93-102v-114h-434v114z m315 571v21c0 21 17 38 38 38s38-16 38-38v-21c0-21-17-39-38-39s-38 18-38 39z" horiz-adv-x="1000" />

<glyph glyph-name="inbox" unicode="&#xe86b;" d="M1000 424c0 1 0 3 0 4 0 1 0 2-1 5 0 1-1 3-1 4 0 1-1 2-1 4-1 1-1 3-2 4-1 1-3 2-3 4 0 0-1 1-1 1l-234 286c-9 11-21 16-34 16h-446c-13 0-25-5-33-16l-234-286c0 0-1-1-1-1-1-1-2-2-2-4-2-1-2-3-3-4-1-1-1-2-1-4 0-1-1-2-1-4 0-1-1-3-1-5 0-1 0-3 0-4 0-1 0-1 0-2v-389c-1-47 38-85 86-85h826c48 0 87 38 87 86v389c0 0 0 1 0 1z m-702 241h403l163-195h-143c-12 0-24-8-33-17l-99-114h-178l-99 114c-9 10-20 17-33 17h-144l163 195z m615-630l-826 0v348h173l94-109c11-13 28-22 45-22h202c18 0 33 10 45 22l94 109h173v-348z" horiz-adv-x="1000" />

<glyph glyph-name="information" unicode="&#xe86c;" d="M471 48c-9 0-18 3-24 9-11 8-17 22-13 37l53 271-29-16c-19-10-42-4-53 14-9 19-4 41 15 52l101 58c13 7 29 6 41-2 12-9 17-24 15-38l-55-283 45 20c20 8 42 0 50-20 9-20 0-41-19-50l-112-49c-4-2-10-3-15-3z m107 519c10 10 17 24 17 38 0 15-6 29-17 39-9 9-24 16-38 16-14 0-28-6-38-16-10-10-16-24-16-39 0-14 5-28 16-38 10-9 24-16 38-16 14 0 29 6 38 16z m422-217c0 276-224 500-500 500s-500-224-500-500 224-500 500-500 500 224 500 500z m-87 0c0-228-185-413-413-413s-413 185-413 413 185 413 413 413 413-185 413-413z" horiz-adv-x="1000" />

<glyph glyph-name="italic" unicode="&#xe86d;" d="M551 517c9-9 12-25 9-38l-80-412c20 7 43-1 53-19 12-21 4-48-17-59l-27-15c-11-6-22-9-34-9-14 0-28 5-40 14-21 17-32 44-27 71l77 398h-18c-24 0-44 19-44 43s20 44 44 44h72c11 0 23-8 32-18z m-19 187c-29 0-52-22-52-51s23-51 52-51 51 23 51 51-24 51-51 51z" horiz-adv-x="1000" />

<glyph glyph-name="jewel" unicode="&#xe86e;" d="M988 511l-184 194c-8 9-19 15-31 15h-546c-12 0-24-6-31-15l-184-195c-16-18-15-44 1-61l457-457c8-8 19-13 30-13s23 5 30 13l457 457c17 17 17 45 1 62z m-690-63l80-235-234 235h154z m239 185l70-109h-213l69 109h74z m-37-547l0 2-122 360h244l-122-360 0-2z m202 362h156l-236-235 80 235z m159 76h-165l-70 109h127l108-109z m-615 109h127l-69-109h-165l107 109z" horiz-adv-x="1000" />

<glyph glyph-name="lifting" unicode="&#xe86f;" d="M837 611v-522c0-24-20-43-43-43s-44 19-44 43v218h-500v-218c0-24-20-43-43-43s-44 19-44 43v522c0 24 20 43 44 43s43-19 43-43v-217h500v217c0 24 20 43 44 43s43-19 43-43z m-772-64c-24 0-43-20-43-44v-307c0-24 19-44 43-44s44 20 44 44v307c0 24-20 44-44 44z m870 0c-24 0-44-20-44-44v-307c0-24 20-44 44-44s43 20 43 44v307c0 24-19 44-43 44z" horiz-adv-x="1000" />

<glyph glyph-name="lightbulb" unicode="&#xe870;" d="M500 850c-178 0-326-148-326-329 0-111 43-200 130-260v-107c0-12 8-24 17-31 7-8 19-12 30-12 1 0 3 0 4 0l299 24c23 2 43 20 43 43v82c76 55 130 151 130 261-1 181-149 329-327 329z m130-527c-14-8-21-23-21-38v-66l-218-18v84c0 15-6 29-19 38-75 43-110 109-110 198-1 133 107 242 238 242s239-109 239-242c-1-87-40-161-109-198z m61-281c3-23-16-44-40-46l-297-22c-1 0-2 0-3 0-23 0-41 17-43 40-3 24 16 45 40 47l297 22c25 2 45-17 46-41z m-94-137c2-24-17-44-40-46l-107-9c-1 0-2 0-3 0-23 0-42 17-44 40-2 24 17 45 41 47l107 9c24 1 45-17 46-41z m76 617c-2-20-19-35-38-35-1 0-2 0-3 0-21 2-36 21-34 41 6 62-48 85-54 87-20 8-30 30-23 49 6 20 28 31 48 23 40-14 114-67 104-165z" horiz-adv-x="1000" />

<glyph glyph-name="link" unicode="&#xe871;" d="M987 155l-259 259c-17 18-44 18-62 0l-84-85-103 103 85 84c18 18 18 45 0 62l-259 259c-17 17-44 17-61 0l-231-232c-9-7-13-18-13-30 0-12 4-23 13-30l259-259c8-9 19-13 30-13 11 0 22 4 31 13l84 85 103-102-85-85c-18-18-18-45 0-62l259-259c8-9 19-13 30-13 12 0 23 4 30 13l232 232c18 16 18 44 1 60z m-685 223l-197 197 170 170 197-197-55-54-32 32c-18 18-45 18-62 0-18-17-18-44 0-62l32-32-53-54z m423-423l-197 197 55 55 32-33c9-9 20-13 31-13 11 0 21 4 30 13 18 17 18 45 0 62l-32 33 54 54 197-197-170-171z" horiz-adv-x="1000" />

<glyph glyph-name="link-broken" unicode="&#xe872;" d="M404 328c0-24-19-43-43-43l-67-2c-11 0-21 3-29 11l-252 254c-9 9-13 19-13 31 0 12 4 23 13 31l227 227c18 17 45 17 62 0l255-254c17-18 17-45 0-61-18-18-45-17-62 0l-224 224-166-166 210-208h45c25 0 44-20 44-44z m583-176l-252 253c-9 9-18 11-28 11l-68-1c-24 0-43-19-43-43 0-24 19-44 43-44h46l211-208-167-166-224 224c-17 18-44 18-61 0-18-17-18-44 0-61l254-254c9-9 19-13 31-13 11 0 22 4 31 13l227 227c9 8 13 20 13 31 0 12-4 23-13 31z m-324 451c24 0 44 20 44 44v108c0 24-20 44-44 44s-43-20-43-44v-108c0-24 19-44 43-44z m127-133h109c24 0 43 19 43 43s-19 44-43 44h-109c-24 0-43-20-43-44s19-43 43-43z m-453-367c-24 0-43-19-43-43v-109c0-24 19-43 43-43s43 19 43 43v109c0 24-19 43-43 43z m-134 127h-108c-24 0-44-19-44-43s20-43 44-43h108c24 0 44 19 44 43s-20 43-44 43z" horiz-adv-x="1000" />

<glyph glyph-name="list" unicode="&#xe873;" d="M991 687c0-36-29-65-65-65h-599c-36 0-65 29-65 65s29 65 65 65h599c36 0 65-29 65-65z m-664-402h340c36 0 66 29 66 65s-30 65-66 65h-340c-36 0-65-29-65-65s29-65 65-65z m481-207h-481c-36 0-65-29-65-65s29-65 65-65h481c36 0 65 29 65 65s-28 65-65 65z m-734 680c-19 0-37-8-50-21s-22-32-22-50 8-37 21-50c13-13 31-21 50-21s37 8 50 21c13 13 21 32 21 50s-8 37-21 50c-12 13-31 21-49 21z m0-337c-19 0-37-8-50-21s-22-31-22-50 8-37 21-50c13-13 31-21 50-21s37 8 50 21c13 13 21 32 21 50s-8 37-21 50c-12 13-31 21-49 21z m0-337c-19 0-37-8-50-21s-22-31-22-50 8-37 21-50c13-13 31-21 50-21s37 8 50 21c13 13 21 32 21 50s-8 37-21 50c-12 13-31 21-49 21z" horiz-adv-x="1000" />

<glyph glyph-name="loading" unicode="&#xe874;" d="M500 571c-24 0-43 19-43 43v187c0 24 19 44 43 44s44-20 44-44v-187c0-24-20-43-44-43z m-129-43c19 14 24 42 9 61l-110 151c-15 20-42 24-61 10-20-14-24-41-10-61l110-151c8-12 21-17 35-17 9-1 19 2 27 7z m-81-109c8 22-5 47-28 54l-178 57c-23 8-48-5-55-28-7-22 6-47 29-54l178-58c4-1 9-2 13-2 18 0 35 12 41 31z m-206-249l178 57c23 8 36 32 28 55-7 22-31 34-54 28l-178-58c-23-7-36-31-29-54 6-19 23-31 42-31 4 0 8 0 13 3z m186-210l110 151c15 19 10 47-9 61s-47 10-61-10l-110-151c-14-20-10-47 10-61 7-5 16-9 25-9 13 0 26 7 35 19z m274-61v187c0 24-20 43-44 43s-43-19-43-43v-187c0-24 19-44 43-44s44 20 44 44z m247 51c20 14 24 41 10 61l-111 151c-14 20-41 24-61 10-19-14-24-42-9-61l109-151c9-12 22-18 35-18 10-1 20 3 27 8z m180 247c7 23-6 48-29 54l-178 58c-23 7-48-6-54-29-8-22 5-47 28-54l178-57c5-2 9-3 13-3 19 1 36 13 42 31z m-207 193l178 58c23 7 36 31 29 54-8 23-32 35-55 28l-178-57c-23-8-36-32-28-54 5-19 23-31 41-31 4 0 9 1 13 2z m-74 148l110 151c14 20 10 47-10 61-19 14-46 10-61-10l-109-151c-15-19-10-47 9-61 8-5 17-8 25-8 15 0 28 6 36 18z" horiz-adv-x="1000" />

<glyph glyph-name="location" unicode="&#xe875;" d="M744 764c-62 56-149 86-244 86s-181-30-243-86c-77-67-116-168-116-294 0-273 314-594 329-607 8-9 19-13 30-13s23 4 30 13c15 13 329 334 329 607 0 126-39 227-115 294z m-244-806c-29 32-76 87-122 152-98 139-150 263-150 360 0 271 208 293 272 293 252 0 272-225 272-293 0-192-195-428-272-512z m0 704c-96 0-173-79-173-176s77-175 173-175c96 0 173 79 173 176s-77 175-173 175z m0-275c-53 0-97 45-97 100s44 100 97 100c53 0 97-45 97-100s-44-100-97-100z" horiz-adv-x="1000" />

<glyph glyph-name="lock" unicode="&#xe876;" d="M794 491h-33v75c0 161-109 273-261 273-152 0-261-112-261-273v-75h-32c-24 0-44-19-44-43v-544c0-24 20-43 44-43h587c23 0 43 19 43 43v544c0 24-20 43-43 43z m-468 75c0 111 72 186 174 186 102 0 174-75 174-186v-75h-348v75z m424-618h-500v456h500v-456z" horiz-adv-x="1000" />

<glyph glyph-name="lock-open" unicode="&#xe877;" d="M794 491h-468v75c0 111 71 186 172 186 74 0 132-38 157-105 9-23 34-34 57-25 23 8 34 33 25 56-37 100-128 161-239 161-151 0-259-112-259-273v-75h-32c-24 0-44-19-44-43v-544c0-24 20-43 44-43h587c23 0 43 19 43 43v544c0 24-20 43-43 43z m-44-543h-500v456h500v-456z" horiz-adv-x="1000" />

<glyph glyph-name="mail" unicode="&#xe878;" d="M1000 601c0 1 0 3 0 4 0 2 0 3 0 4 0 1-1 2-1 4 0 1-1 3-1 4 0 2-1 3-2 4-1 1-1 3-2 4 0 0 0 1 0 1-2 1-2 1-3 2-1 1-2 2-3 4-1 1-2 2-3 2-1 1-2 2-3 2-2 1-3 1-4 2-1 1-2 1-3 2-1 0-3 1-4 1-1 0-2 1-5 1-1 0-3 0-4 0-1 0-2 0-3 0h-915c-2 0-3 0-4 0-1 0-3 0-4 0-1 0-2-1-4-1-2 0-4-1-5-1-1 0-2-1-3-2-1-1-2-1-3-2-1-1-2-1-4-2-1-1-2-2-3-2-1-2-2-3-3-4-1-1-1-1-2-2 0 0 0-1 0-1-1-1-2-3-2-4-2-1-2-2-3-4-1-1-1-2-1-4 0-1-1-2-1-4 0-1 0-2 0-4 0-1 0-3 0-4 0 0 0-1 0-1v-500c0-24 20-43 44-43h913c24 0 43 19 43 43l-2 501c0-1 0 0 0 0z m-175-44l-325-242-325 242h650z m-738-413v369l387-287c8-5 16-9 26-9s19 4 26 9l387 287v-369h-826z" horiz-adv-x="1000" />

<glyph glyph-name="map" unicode="&#xe879;" d="M980 689l-229 108c-1 0-1 0-1 1-1 1-3 1-4 1-1 0-4 1-5 1-1 0-3 0-4 0-1 0-3 0-4 0-1 0-4 0-5-1-1 0-3-1-4-1-1 0-1 0-2-1l-214-100-217 100c-1 0-1 0-2 1-1 1-3 1-4 1-1 0-3 1-5 1-1 0-3 0-4 0-1 0-3 0-4 0-1 0-3 0-5-1-1 0-3-1-4-1-1 0-1 0-2-1l-236-108c-14-6-25-19-25-35v-706c0-13 10-25 21-33 6-4 15-6 21-6 6 0 12 1 18 3l214 101 215-100c0 0 0 0 0 0 2-1 5-2 7-2 1 0 1 0 2 0 2 0 4-1 7-1 3 0 6 0 8 1 1 0 1 0 2 0 2 1 5 1 7 2 0 0 0 0 0 0l214 100 214-100c5-2 11-3 16-3 8 0 12 2 18 6 11 8 15 20 15 33v705c1 16-4 29-19 35z m-523-681l-142 71v622l142-72v-621z m-381 621l152 72v-622l-152-71v621z m468 0l152 72v-622l-152-71v621z m380-621l-152 71v622l152-72v-621z" horiz-adv-x="1000" />

<glyph glyph-name="media-loop" unicode="&#xe87a;" d="M859 499v-432c0-23-20-43-44-43h-630c-24 0-44 20-44 43v432c0 24 20 47 44 47h241l-59 57c-17 18-16 44 0 60 18 17 45 16 62 0l133-134c16-17 16-44 0-60l-133-134c-8-9-19-13-30-13-11 0-22 4-30 13-18 17-18 45 0 62l58 61h-199v-348h544v349h-92c-23 0-43 19-43 43s20 44 43 44h135c24 0 44-23 44-47z" horiz-adv-x="1000" />

<glyph glyph-name="media-next" unicode="&#xe87b;" d="M647 384l-457 358c-13 10-30 12-45 6-16-8-25-23-25-39v-718c0-16 9-31 25-39 6-3 13-4 18-4 10 0 20 3 27 10l457 358c11 9 16 21 16 34 0 13-6 26-16 34z m-440-304v540l342-270-342-270z m673 611v-690c0-27-21-49-48-49s-49 22-49 49v690c0 28 21 49 49 49s48-21 48-49z" horiz-adv-x="1000" />

<glyph glyph-name="media-pause" unicode="&#xe87c;" d="M359 709v-718c0-30-24-54-55-54s-54 24-54 54v718c0 30 24 54 54 54s55-24 55-54z m337 54c-31 0-55-24-55-54v-718c0-30 24-54 55-54s54 24 54 54v718c0 30-24 54-54 54z" horiz-adv-x="1000" />

<glyph glyph-name="media-play" unicode="&#xe87d;" d="M755 384l-456 358c-13 10-30 12-46 6-15-8-25-23-25-39v-718c0-16 10-31 25-39 7-3 13-4 19-4 10 0 19 3 27 10l456 358c11 9 17 21 17 34s-7 26-17 34z m-440-304v540l343-270-343-270z" horiz-adv-x="1000" />

<glyph glyph-name="media-previous" unicode="&#xe87e;" d="M855 748c-15 7-32 5-45-6l-451-358c-11-9-17-21-17-34s7-26 17-34l451-358c7-7 17-10 27-10 7 0 13 1 18 4 16 8 25 23 25 39v718c0 16-9 31-25 39z m-61-666l-339 268 339 269v-537z m-587 609v-690c0-27-22-49-49-49s-49 22-49 49v690c0 28 21 49 49 49s49-21 49-49z" horiz-adv-x="1000" />

<glyph glyph-name="media-record" unicode="&#xe87f;" d="M500-69c-230 0-418 189-418 419 0 230 188 419 418 419 230 0 419-189 419-419 0-230-189-419-419-419z m0 740c-177 0-321-144-321-321 0-177 144-321 321-321 177 0 321 144 321 321 0 177-144 321-321 321z" horiz-adv-x="1000" />

<glyph glyph-name="media-shuffle" unicode="&#xe880;" d="M741 524c-45 0-159-113-243-195-126-121-246-240-341-240h-59c-24 0-44 20-44 44 0 24 20 43 44 43h59c60 0 182 122 280 216 120 116 223 219 304 219h57l-60 58c-17 17-17 42 0 59 17 18 45 18 62 0l134-133c8-9 13-20 13-31 0-12-5-23-13-30l-135-134c-9-9-20-12-30-12-11 0-22 4-31 13-17 18-17 46 0 62l60 61h-57z m58-224c-17 17-45 17-62 0-17-17-17-46 0-63l60-61h-57c-36 0-95 53-154 108-17 16-45 16-62-1-16-18-15-47 2-63 91-84 152-131 215-131h57l-60-57c-17-18-17-44 0-61 9-9 20-12 31-12 10 0 21 4 30 13l134 133c8 9 13 20 13 31 0 12-5 23-13 30l-134 134z m-701 224h59c45 0 114-59 168-108 9-7 19-12 29-12 12 0 24 5 33 15 16 17 15 46-3 63-85 77-157 130-227 130h-59c-24 0-44-20-44-43s20-45 44-45z" horiz-adv-x="1000" />

<glyph glyph-name="media-stop" unicode="&#xe881;" d="M913 714c0 27-22 49-49 49h-739c-27 0-49-22-49-49v-739c0-27 22-49 49-49h739c27 0 49 22 49 49v739z m-98-690h-641v641h641v-641z" horiz-adv-x="1000" />

<glyph glyph-name="medical" unicode="&#xe882;" d="M987 601c-8 8-18 10-30 10h-229v130c0 24-21 44-45 44h-366c-23 0-45-20-45-44v-130h-228c-24 0-44-14-44-38v-614c0-24 20-44 44-44h913c23 0 43 20 43 44l0 612c0 12-4 21-13 30z m-628 97h282v-87h-282v87z m554-696h-826v522h826l0-522z m-590 267c0 20 17 38 38 38h96v96c0 21 17 38 38 38s38-17 38-38v-96h106c21 0 38-18 38-38s-17-39-38-39h-106v-102c0-20-18-38-38-38s-38 17-38 38v102h-96c-21 0-38 18-38 39z" horiz-adv-x="1000" />

<glyph glyph-name="menu" unicode="&#xe883;" d="M848 595h-696c-39 0-70 31-70 70s31 71 70 71h696c39 0 71-32 71-71s-32-70-71-70z m71-245c0 39-32 71-71 71h-696c-39 0-70-32-70-71s31-71 70-71h696c39 0 71 32 71 71z m0-315c0 39-32 70-71 70h-696c-39 0-70-31-70-70s31-71 70-71h696c39 0 71 32 71 71z" horiz-adv-x="1000" />

<glyph glyph-name="message" unicode="&#xe884;" d="M957 785h-913c-24 0-44-20-44-44v-555c0-24 20-42 44-42h510v-185c0-19 15-35 31-42 5-2 11-2 16-2 13 0 25 6 34 15l180 214h142c23 0 43 18 43 42v555c0 24-20 44-43 44z m-44-555h-117c-13 0-27-6-36-15l-119-138v109c0 24-15 44-39 44h-515v468h826v-468z m-711 316c0 24 20 43 44 43h315c24 0 43-19 43-43s-19-44-43-44h-315c-24 0-44 20-44 44z m477-34c-7 8-13 20-13 30 0 12 5 23 13 31 9 9 20 13 31 13 12 0 23-4 30-13 8-8 13-20 13-31 0-12-4-22-13-30-8-9-19-13-30-13-11 1-22 5-31 13z" horiz-adv-x="1000" />

<glyph glyph-name="meter" unicode="&#xe885;" d="M791 579l-211-454c-18-47-51-74-86-74-30 0-55 15-69 39-15 29-14 63 4 93v0l276 442c15 22 43 29 66 17 23-12 31-39 20-63z m74-131c-16 17-43 18-62 2-17-16-18-43-2-62 72-78 112-180 112-288 0-24 20-43 44-43s43 19 43 43c0 129-48 253-135 348z m-330 72c24-3 44 15 47 39 2 24-16 44-40 46-14 2-28 3-42 3-276 0-500-229-500-509 0-24 20-44 44-44s43 20 43 44c0 233 185 422 413 422 12 1 24 0 35-1z" horiz-adv-x="1000" />

<glyph glyph-name="microphone" unicode="&#xe886;" d="M742-107c0-23-19-43-44-43h-398c-25 0-45 20-45 43s20 44 45 44h161l0 74c0 21 17 38 39 38 22 0 39-17 39-38l0-74h160c24 0 43-20 43-44z m-9 642c0 0 0 0 0 0-22 0-39-18-39-38l0-283c0-16-7-31-18-42-11-11-25-18-40-18 0 0 0 0 0 0l-272 0c-15 0-29 7-40 18-11 12-17 26-17 42l0 283c0 20-18 38-40 38 0 0 0 0 0 0-21 0-39-18-39-38l0-283c0-36 14-70 39-95 27-27 60-41 97-41l272 0c0 0 0 0 0 0 37 0 71 14 97 41 25 26 39 59 39 95l0 283c0 20-18 38-39 38z m-350-297c-16 19-24 40-24 62l0 453c0 22 8 45 25 63 17 22 40 34 63 34 0 0 0 0 0 0h105c50 0 89-52 89-96l0-452c0-43-39-93-88-93 0 0 0 0 0 0l-105-2c-24 0-48 10-65 31z m64 62c0-2 3-6 5-9l95 0c2 3 5 7 5 10l0 453c0 3-3 7-5 9l-95 0c-2-2-5-8-5-10l0-453z" horiz-adv-x="1000" />

<glyph glyph-name="minus" unicode="&#xe887;" d="M739 301h-478c-27 0-49 22-49 49s22 49 49 49h478c27 0 49-22 49-49s-22-49-49-49z" horiz-adv-x="1000" />

<glyph glyph-name="monitor" unicode="&#xe888;" d="M1000 709c0 24-20 43-43 43h-913c-24 0-44-19-44-43v-565c0-24 20-44 44-44h913c23 0 43 20 43 44v565z m-87-522h-826v478h826v-478z m-158-196c0-24-19-43-43-43h-424c-24 0-43 19-43 43s19 44 43 44h423c25 0 44-20 44-44z" horiz-adv-x="1000" />

<glyph glyph-name="move" unicode="&#xe889;" d="M1000 347c0-12-4-23-13-31l-153-152c-9-9-20-12-31-12-11 0-23 5-30 13-18 18-16 46 0 62l79 81h-308v-309l79 79c17 18 44 17 62 0 17-17 16-44 0-62l-153-153c-9-9-20-13-32-13s-22 4-30 13l-154 152c-17 18-17 45 0 62 18 18 45 18 61 0l80-79v309h-308l79-81c18-17 18-46 0-63-8-9-19-13-30-13-11 0-22 4-31 13l-154 153c-9 8-13 19-13 31s4 23 13 30l153 153c18 18 45 18 62 0 18-17 17-43 0-60l-79-76h308v308l-80-79c-17-18-44-16-61 0-17 17-16 44 0 62l154 152c17 17 44 17 60 0l155-152c17-18 17-45 0-62-9-9-20-13-31-13-10 0-22 4-30 13l-80 79v-308h307l-79 77c-18 17-18 42 0 59 17 18 44 18 62 0l153-153c9-7 13-18 13-30z" horiz-adv-x="1000" />

<glyph glyph-name="music" unicode="&#xe88a;" d="M966 782c0 13-5 26-16 33-10 9-23 12-36 9l-548-111c-20-4-34-22-34-42l0-499c-31 17-68 27-107 27 0 0 0 0 0 0-50 0-97-15-134-46-38-32-58-71-58-118 0-93 87-163 192-163 0 0 0 0 0 0 50 0 95 13 130 42 39 32 57 73 57 119v-1 0 0l3 426 462 93 0-259c-29 18-64 25-103 25 0 0 0 0 0 0-50 0-97-14-134-43-38-32-60-72-60-119 0-92 87-164 193-164 0 0 0 0 0 0 101 0 185 67 192 154 0 1 0 5 0 17l1 620z m-663-801c-20-17-48-22-78-22 0 0 0 0 0 0-58 0-105 32-105 76 0 19 9 37 28 51 21 17 48 24 78 24 0 0 0 0 0 0 58 0 107-35 107-78-1-19-11-35-30-51z m116 555l0 99 460 94 0-99-460-94z m355-458c0 0 0 0 0 0-58 0-107 35-107 79 0 19 10 35 29 51 20 17 48 22 78 22 0 0 0 0 0 0 54 0 106-28 106-69v-12c-10-41-52-71-106-71z" horiz-adv-x="1000" />

<glyph glyph-name="network-1" unicode="&#xe88b;" d="M711 94c-49 0-90-37-108-70h-237c-18 0-29 10-29 28v244h266c18-44 59-71 108-71 64 0 116 52 116 115s-52 115-116 115c-49 0-90-29-108-72h-266v233c0 0-2 1-2 1 42 18 72 59 72 107 0 64-53 115-117 115-64 1-116-51-116-114 0-48 31-90 74-106 0 0 2-2 2-2v-565c0-66 50-115 116-115h237c18-44 59-75 108-75 64 0 116 52 116 115s-53 117-116 117z m0 296c28 0 51-23 51-50 0-27-23-50-51-50-28 0-51 23-51 50 0 29 23 50 51 50z m-422 385c28 0 51-23 51-50s-23-50-51-50c-28 0-51 23-51 50s24 50 51 50z m422-850c-28 0-51 23-51 50s23 50 51 50c28 0 51-23 51-50s-24-50-51-50z" horiz-adv-x="1000" />

<glyph glyph-name="network-2" unicode="&#xe88c;" d="M838 724c0 63-52 115-116 115-64 0-117-52-117-115 0-48 30-89 72-107-1-19-13-141-183-203-78-28-135-66-168-105v308c44 18 70 59 70 107 0 63-54 115-117 115-64 0-114-52-114-115 0-48 31-89 74-107v-534c-43-18-75-59-75-107 0-63 51-115 114-115 64 0 118 52 118 115 0 48-27 89-71 107v34c0 12 5 145 199 216 230 83 241 263 241 284 44 18 73 59 73 107z m-560 50c29 0 50-23 50-50s-23-50-50-50c-28 0-50 23-50 50s22 50 50 50z m0-848c-28 0-50 23-50 50s23 50 50 50c29 0 50-23 50-50s-23-50-50-50z m444 748c-28 0-50 23-50 50s23 50 50 50c28 0 50-23 50-50s-22-50-50-50z" horiz-adv-x="1000" />

<glyph glyph-name="network-3" unicode="&#xe88d;" d="M902 83v234c0 67-47 120-113 120h-245v179c0 0 0 1 0 1 42 18 71 59 71 107 0 63-51 115-115 115-64 0-115-52-115-115 0-48 30-89 72-107 0 0 0-1 0-1v-179h-246c-66 0-113-54-113-120v-234c-44-18-75-59-75-107 0-63 50-115 113-115s117 52 117 115c0 48-37 89-69 107v234c0 19 8 33 26 33h247v-267c-44-18-72-59-72-107 0-63 51-115 115-115 64 0 115 52 115 115 0 48-28 89-71 107v267h245c19 0 26-15 26-33v-234c-32-18-68-59-68-107 0-63 53-115 117-115 64 0 113 52 113 115 0 48-31 89-75 107z m-402 691c27 0 50-23 50-50s-23-50-50-50c-27 0-50 23-50 50s23 50 50 50z m-365-848c-27 0-50 23-50 50s23 50 50 50c27 0 50-23 50-50s-23-50-50-50z m365 0c-27 0-50 23-50 50s23 50 50 50c27 0 50-23 50-50s-23-50-50-50z m365 0c-27 0-50 23-50 50s23 50 50 50c27 0 50-23 50-50s-23-50-50-50z" horiz-adv-x="1000" />

<glyph glyph-name="network-4" unicode="&#xe88e;" d="M421 728c0 64-51 117-116 117-63 0-120-53-120-117 0-49 32-90 65-107v-542c-33-17-65-58-65-107 0-64 55-117 118-117 64 0 116 53 116 117 0 49-29 90-72 107v542c44 17 74 58 74 107z m-113 50c27 0 49-23 49-50s-22-50-49-50c-28 0-49 23-49 50s20 50 49 50z m0-856c-28 0-49 23-49 50s21 50 49 50c27 0 49-23 49-50s-22-50-49-50z m442 157v542c33 17 65 58 65 107 0 64-55 117-119 117s-116-53-116-117c0-49 29-90 72-107v-542c-43-17-73-58-73-107 0-64 51-117 116-117s120 53 120 117c0 49-32 90-65 107z m-58 699c28 0 49-23 49-50s-21-50-49-50c-27 0-48 23-48 50s21 50 48 50z m0-856c-27 0-48 23-48 50s21 50 48 50c28 0 49-23 49-50s-20-50-49-50z" horiz-adv-x="1000" />

<glyph glyph-name="network-5" unicode="&#xe88f;" d="M544 83v533c0 0 0 1 0 1 41 18 70 59 70 107 0 63-51 115-114 115s-114-52-114-115c0-48 29-89 71-107 0 0 0-1 0-1v-533c-42-18-71-59-71-107 0-63 51-115 114-115s114 52 114 115c0 48-29 89-70 107z m-44 691c27 0 49-23 49-50s-22-50-49-50-49 23-49 50 22 50 49 50z m0-848c-27 0-49 23-49 50s22 50 49 50 49-23 49-50-22-50-49-50z" horiz-adv-x="1000" />

<glyph glyph-name="pamphlet" unicode="&#xe890;" d="M887 817c-11 7-24 8-35 3l-229-108-231 108c-1 0-1 0-2 1-1 1-3 1-4 1-1 0-3 1-4 1-2 0-4 0-5 0-1 0-3 0-4 0-1 0-3 0-4-1-2 0-4-1-5-1-1 0-1 0-2-1l-250-116c-14-6-25-19-25-34v-755c0-13 10-25 21-32 6-5 14-6 21-6 6 0 12 1 17 3l230 108 231-108c0 0 0 0 0 0 2-1 4-2 6-2 1 0 1 0 2 0 2 0 5-1 8-1s4 0 7 1c2 0 2 0 3 0 2 1 4 1 6 2 0 0 0 0 0 0l244 116c13 6 19 19 19 34v755c0 13-4 25-15 32z m-300-842l-174 79v671l174-79v-671z m-424 671l174 79v-671l-174-79v671z m663-592l-163-79v671l163 79v-671z" horiz-adv-x="1000" />

<glyph glyph-name="paperclip" unicode="&#xe891;" d="M924 452c15-15 15-39 0-54l-433-432c-71-73-153-111-231-111-20 0-39 3-59 8-76 21-135 79-155 159-26 98 8 204 96 292l483 482c78 78 187 53 250-10 86-86 62-187 4-245l-485-484c-65-65-137-60-174-22-37 38-42 109 22 174l329 328c15 15 39 15 54 0 15-15 15-39 0-54l-330-329c-29-28-33-55-23-66 11-11 38-6 66 22l486 486c49 49 28 104-4 137-37 37-97 55-143 8l-480-481c-69-69-97-148-77-219 14-52 52-91 102-104 67-19 144 12 216 84l433 432c14 13 38 13 53-1l0 0z" horiz-adv-x="1000" />

<glyph glyph-name="pencil" unicode="&#xe892;" d="M969 784l-35 35c-21 20-47 31-76 31 0 0 0 0 0 0-30 0-56-11-76-31l-687-689c-5-4-8-8-10-15l-82-205c-6-17-3-35 10-47 8-9 20-13 31-13 5 0 10 1 16 3l206 81c6 2 11 5 16 9l688 689c41 41 41 109-1 152z m-808-713l61-61-101-39 40 100z m746 621l-600-600-63 63 598 602c6 5 12 6 16 6s9-1 15-6l35-35c7-8 7-21-1-30z" horiz-adv-x="1000" />

<glyph glyph-name="phone" unicode="&#xe893;" d="M962 714c-1 1-1 1-2 2l-118 103c-16 15-38 22-62 20-20-2-41-11-56-26-1-1-2-2-3-3l-116-146c-30-32-29-82 3-114 2-2 4-4 6-5l59-40c-4-20-35-79-143-186-106-107-166-137-185-142l-40 59c-1 2-3 4-5 6-31 32-83 32-114 3l-145-116c-1-1-2-2-3-3-33-32-35-87-5-118l102-117c1-1 1-1 2-2 20-19 50-27 84-27 59 0 128 24 164 38 69 27 205 93 340 228 100 100 180 221 228 341 20 54 66 189 9 245z m-300-526c-201-201-427-257-465-238l-99 114c0 0 0 0 0 0l141 112 38-57c1-2 1-3 2-4 13-16 32-25 54-26 20-1 84-4 257 169 43 42 173 172 169 257-1 22-11 40-26 54-1 1-3 2-4 2l-55 39 112 142c0 0 0 0 0 0l113-99c20-38-36-264-237-465z" horiz-adv-x="1000" />

<glyph glyph-name="photo" unicode="&#xe894;" d="M957 730h-913c-24 0-44-19-44-43v-674c0-24 20-43 44-43h913c23 0 43 19 43 43v674c0 24-20 43-43 43z m-44-86v-365l-73 61c-16 13-39 13-55 0l-118-98-272 237c-17 15-40 15-56 1l-252-203v367h826z m-826-587v108l278 225 273-237c16-14 40-14 57-1l117 98 101-85v-108h-826z m479 439c0 43 36 79 81 79 44 0 80-36 80-79 0-44-36-80-80-80-45 0-81 36-81 80z" horiz-adv-x="1000" />

<glyph glyph-name="photo-group" unicode="&#xe895;" d="M997 574l-103-498c-4-15-17-26-32-26-2 0-4 0-7 1-17 3-29 21-25 38l97 465-624 128-15-70c-4-17-22-28-39-25-17 4-28 22-25 39l23 101c4 18 20 28 38 25l687-139c8-2 16-6 20-14 5-8 6-16 5-25z m-203-594c0-24-20-43-44-43h-706c-24 0-44 19-44 43v533c0 24 20 44 44 44h706c24 0 44-20 44-44v-533z m-707 490v-269l184 149c14 12 37 12 51-1l206-183 86 74c14 12 31 12 45 0l36-37v267h-608z m609-446v79l-61 58-83-74c-14-12-35-12-49 0l-209 184-207-169v-78h609z m-181 268c37 0 67 30 67 67 0 37-31 66-67 66-37 0-66-29-66-66-1-36 29-67 66-67z" horiz-adv-x="1000" />

<glyph glyph-name="pill" unicode="&#xe896;" d="M903 753c-48 49-112 75-180 75s-132-26-181-75l-445-445c-49-49-75-113-75-181s26-132 75-180c48-48 112-75 180-75s133 26 181 75l446 447c48 47 75 111 75 180s-27 131-76 179z m-507-745c-32-32-74-49-119-49s-87 17-118 49c-32 31-49 74-49 118s17 87 49 119l181 181c50-32 173-121 238-237l-182-181z m446 446l-208-208c-70 112-181 196-239 237l209 209c32 32 74 49 119 49s87-17 118-49l0 0c32-31 49-73 49-118s-16-88-48-120z m-217 128c15-16 15-40 0-55l-52-52c-8-8-18-11-27-11s-20 3-27 11c-16 15-16 39 0 54l52 53c15 15 39 15 54 0z m87 88c8-8 13-20 13-31 0-11-4-23-13-30-8-8-20-13-30-13-12 0-23 4-31 13-7 8-13 19-13 30 0 12 4 23 13 31 9 8 20 13 31 13 12 0 22-6 30-13z" horiz-adv-x="1000" />

<glyph glyph-name="pin" unicode="&#xe897;" d="M987 563l-274 274c-17 17-44 17-62 0-3-3-82-85-52-191l-124-124c-68 20-243 56-373-73-17-17-17-45 0-62l187-187-276-276c-17-18-17-45 0-62 9-8 20-12 31-12s21 4 30 13l276 276 187-187c9-9 20-13 30-13 11 0 22 4 31 13 129 130 93 306 73 373l124 124c106-30 187 49 191 52 18 18 18 45 1 62z m-184-24c-16 8-36 5-49-9l-163-163c-12-12-16-31-9-46 0 0 19-49 22-112 4-63-9-117-39-161l-185 182c0 0 0 0 0 0s0 0 0 0l-184 185c116 79 266 20 273 17 16-7 34-4 47 9l163 163c13 13 17 33 9 49-15 33-10 62 0 85l200-200c-22-9-52-14-85 1z m-257-236c1-3 15-34 14-68 0-21-18-37-38-37 0 0-1 0-1 0-21 1-38 18-37 39 0 14-6 30-8 36-9 19 0 41 20 50 19 7 42 0 50-20z" horiz-adv-x="1000" />

<glyph glyph-name="plus" unicode="&#xe898;" d="M788 345c0-28-22-49-49-49h-195v-185c0-27-22-49-49-49s-49 22-49 49v185h-185c-27 0-49 21-49 49s22 49 49 49h185v195c0 27 21 49 49 49s49-22 49-49v-195h195c27 0 49-22 49-49z" horiz-adv-x="1000" />

<glyph glyph-name="power" unicode="&#xe899;" d="M500 334c-24 0-43 19-43 43v375c0 24 19 44 43 44s44-20 44-44v-375c0-24-19-43-44-43z m413-14c0 158-88 301-229 371-22 11-48 3-59-19-11-22-2-48 20-59 112-55 181-168 181-293 0-182-147-329-326-329-179 0-326 147-326 329 0 126 70 238 181 294 22 11 31 37 20 59-11 22-37 30-59 19-141-71-229-214-229-372 0-230 185-416 413-416 228 0 413 186 413 416z" horiz-adv-x="1000" />

<glyph glyph-name="preview" unicode="&#xe89a;" d="M992 374c-7 11-183 270-492 270-309 0-485-259-492-270-10-14-10-34 0-49 7-10 183-268 492-268 309 0 485 258 492 269 10 14 10 34 0 48z m-492-230c-210 0-353 147-402 206 49 60 191 207 402 207 210 0 353-148 402-207-50-60-192-206-402-206z m25 384c-48 7-95-5-134-34 0 0 0 0 0 0-79-60-95-173-36-253 30-39 71-63 119-70 9-1 17-2 25-2 39 0 76 13 108 35 79 60 95 173 35 253-27 40-69 65-117 71z m44-270c-24-19-55-26-85-22-31 4-58 21-76 44-37 52-28 124 24 162 23 19 54 27 84 22 31-4 58-20 76-44 37-51 28-124-23-162z m-5 157c9-7 13-19 13-30 0-11-4-23-13-31-7-7-19-13-30-13-12 0-23 5-31 13-8 9-13 20-13 31 0 12 5 23 13 30 8 9 20 13 31 13 12-1 23-5 30-13z" horiz-adv-x="1000" />

<glyph glyph-name="print" unicode="&#xe89b;" d="M957 665h-218v131c0 18-10 32-27 32h-424c-17 0-27-14-27-32v-131h-217c-24 0-44-18-44-42v-499c0-24 20-46 44-46h159l-26-169c-2-11 1-24 9-33 8-9 17-15 29-15h571c11 0 22 7 29 16 8 9 11 20 9 31l-27 170h160c23 0 43 22 43 46v499c0 24-20 42-43 42z m-631 98h348v-98h-348v98z m-67-826l41 272h400l41-272h-482z m654 228h-129l-14 89c-4 19-19 31-38 31h-465c-18 0-34-12-38-31l-13-89h-129v413h826v-413z m-714 305c0 18 14 32 33 32h102c18 0 32-14 32-32s-14-33-32-33h-102c-18 0-33 14-33 33z" horiz-adv-x="1000" />

<glyph glyph-name="pulse" unicode="&#xe89c;" d="M1000 230c0-23-20-43-43-43h-205c-18 0-35 10-41 28l-33 92-106-360c-6-19-23-32-42-32 0 0-1 0-1 0-19 1-37 14-41 34l-140 608-85-338c-4-20-22-32-42-32h-177c-24 0-44 20-44 43s20 44 44 44h143l121 479c4 20 22 32 42 32 20 0 37-14 42-34l144-622 98 331c5 18 21 31 40 31 18 1 36-11 42-28l67-189h174c23 0 43-20 43-44z" horiz-adv-x="1000" />

<glyph glyph-name="question" unicode="&#xe89d;" d="M662 573c35-39 51-93 43-149-13-104-89-141-156-141-3 0-5 0-5 0v-26c0-24-20-44-44-44s-43 20-43 44v34c0 36 15 79 92 79 42 0 64 21 70 65 2 14 3 52-23 80-21 23-55 35-100 35-98 0-101-64-101-71 0-24-20-43-44-43s-43 19-43 43c0 44 33 158 188 158 90 0 140-35 166-64z m-165-397c-14 0-28-5-38-16-10-10-17-24-17-38 0-14 6-28 17-38 10-10 24-17 38-17 14 0 28 6 38 17 10 10 16 24 16 38 0 14-5 28-16 38-10 10-23 16-38 16z m503 174c0-276-224-500-500-500s-500 224-500 500 224 500 500 500 500-224 500-500z m-87 0c0 228-185 413-413 413s-413-185-413-413 185-413 413-413 413 185 413 413z" horiz-adv-x="1000" />

<glyph glyph-name="reply" unicode="&#xe89e;" d="M779 375c-79 79-192 123-322 130v117c0 17-13 33-30 40-16 7-36 3-49-10l-267-272c-16-17-17-44 0-60l267-272c12-13 33-16 49-10 17 7 30 23 30 40v118c87 2 291-7 366-139 7-15 22-22 37-22 3 0 6 0 11 1 19 5 33 22 33 42-1 7-1 173-125 297z m-372-95c-22-2-37-20-37-43v-52l-163 165 163 165v-52c0-24 17-43 41-43 234 0 333-112 375-208-153 91-369 70-379 68z" horiz-adv-x="1000" />

<glyph glyph-name="reply-all" unicode="&#xe89f;" d="M877 375c-79 79-192 123-323 130v117c0 17-13 33-29 40-16 7-36 3-49-10l-268-272c-17-17-18-44 0-60l267-272c12-13 34-16 50-10 16 7 29 23 29 40v118c87 2 292-7 366-139 7-15 21-22 37-22 3 0 6 0 10 1 20 5 34 22 34 42-1 7 0 173-124 297z m-374-95c-21-2-36-20-36-43v-52l-163 165 163 165v-52c0-24 18-43 42-43 233 0 332-112 375-208-154 91-369 70-381 68z m-161-171c17-18 17-45 0-62-8-9-19-13-30-13-11 0-23 4-30 13l-268 272c-16 17-16 44 0 60l268 272c17 18 44 18 60 0 18-17 18-44 0-62l-238-239 238-241z" horiz-adv-x="1000" />

<glyph glyph-name="return" unicode="&#xe8a0;" d="M891 499v-432c0-23-19-43-43-43h-640c-24 0-44 20-44 43s20 44 44 44h596v348h-546l59-61c18-18 18-46 0-63-8-9-19-13-30-13-11 0-22 4-30 13l-135 134c-9 8-13 19-13 30 0 12 4 23 13 30l135 134c17 17 44 17 62 0s16-43 0-61l-61-56h590c24 0 43-23 43-47z" horiz-adv-x="1000" />

<glyph glyph-name="retweet" unicode="&#xe8a1;" d="M987 205l-136-134c-9-9-19-13-30-13-11 0-23 4-31 13l-138 134c-17 18-17 45-1 61 18 18 44 18 60 0l60-62v287h-381c-24 0-43 20-43 44s19 43 43 43h430c24 0 39-18 39-42v-331l65 62c17 18 47 17 64 0 16-17 16-44-1-62z m-377-61h-382v288l60-62c9-9 19-13 29-13 11 0 22 4 31 13 17 17 16 44 0 60l-137 136c-17 17-45 17-62 0l-136-134c-17-18-17-45 0-61 17-18 47-18 64 0l65 62v-331c0-24 15-44 40-44h429c24 0 43 19 43 43s-20 43-44 43z" horiz-adv-x="1000" />

<glyph glyph-name="rocket" unicode="&#xe8a2;" d="M997 808c-2 21-19 38-40 40-275 22-472-112-595-279-67 21-140 14-207-23-64-36-117-97-152-171-7-17-4-37 10-50 13-13 34-15 50-6 70 36 148 29 195-18l191-191c0 0 1-1 1-1 47-47 54-125 17-195-8-16-5-37 7-50 9-9 20-13 31-13 7 0 14 1 19 4 74 35 135 90 171 153 38 66 45 139 22 207 49 36 94 75 131 119 115 131 165 291 149 474z m-851-380c46 46 105 74 167 63-17-30-31-61-44-91-37 21-80 30-123 28z m433-432c1 44-8 87-28 124 32 13 62 28 91 44 11-62-16-122-63-168z m-87 194l-153 154c77 205 269 425 574 419 10-364-290-522-421-573z m282 434c13-13 21-32 21-50s-8-37-21-50-32-21-50-21-37 7-50 21-21 31-21 50 8 37 21 50c13 13 31 21 50 21s37-8 50-21z m-612-452c-50-50-52-150-52-170 0-24 19-43 43-43 0 0 1 0 1 0 23 0 119 3 168 52 30 30 37 62 37 83 0 29-12 57-35 80-54 55-123 38-162-2z m99-99c-11-11-35-19-60-22 4 25 12 49 22 59 7 7 14 12 22 12 5 0 12-3 18-10 7-7 10-13 10-18-1-7-7-16-12-21z" horiz-adv-x="1000" />

<glyph glyph-name="scale" unicode="&#xe8a3;" d="M513 165c0-24-19-43-43-43h-426c-24 0-44 19-44 43s20 44 44 44h426c24 0 43-20 43-44z m444 44h-37c-24 0-44-20-44-44s20-43 44-43h37c23 0 43 19 43 43s-20 44-43 44z m-802 327c0 72 59 129 131 129s130-58 130-129-58-129-130-129-131 57-131 129z m87 0c0-24 20-42 44-42s43 19 43 42-19 42-43 42-44-19-44-42z m578-372c0-72-59-129-131-129-72 0-130 59-130 129s58 130 130 130c72 1 131-58 131-130z m-87 0c0 24-20 43-44 43-24 0-43-20-43-43s19-42 43-42c24 0 44 19 44 42z m-689 327h25c23 0 43 20 43 44s-20 43-43 43h-25c-24 0-44-19-44-43s20-44 44-44z m956 44c0 24-20 43-43 43h-443c-24 0-43-19-43-43s19-44 43-44h443c23 0 43 20 43 44z" horiz-adv-x="1000" />

<glyph glyph-name="search" unicode="&#xe8a4;" d="M628 826c-186 0-337-153-337-340 0-79 28-151 72-210l-319-324c-19-19-19-50 0-68 9-10 21-14 33-14 13 0 25 4 35 14l320 324c55-41 122-63 195-63 186 0 337 153 337 340s-150 341-336 341z m0-596c-138 0-250 115-250 255 0 140 112 254 250 254 138 0 250-114 250-254 0-140-112-255-250-255z m169 250c-2-18-19-32-37-32-2 0-3 0-6 0-20 3-34 22-32 42 7 57-56 86-59 87-18 9-27 32-18 50s30 27 50 20c4-1 117-53 102-167z m-80-82c8-8 13-20 13-31 0-12-4-22-13-30-7-8-19-13-30-13-11 0-23 4-30 13-8 8-13 20-13 30 0 11 4 23 13 31 7 7 19 13 30 13 11 0 22-4 30-13z" horiz-adv-x="1000" />

<glyph glyph-name="shopping-bag" unicode="&#xe8a5;" d="M867 576c-7 8-18 13-30 13h-109v20c0 127-104 230-226 230h-4c-122 0-226-103-226-230v-20h-109c-24 0-43-20-43-45v-640c0-24 19-43 43-43h674c24 0 43 19 43 43l0 641c0 10-4 22-13 31z m-508 33c0 79 65 143 139 143h4c74 0 139-64 139-143v-20h-282v20z m435-661h-587v554h65v-75c0-24 19-43 43-43s44 19 44 43v75h282v-75c0-24 20-43 44-43s43 19 43 43v75h66l0-554z" horiz-adv-x="1000" />

<glyph glyph-name="skip" unicode="&#xe8a6;" d="M901 219l-193-194c-10-10-22-14-35-14-12 0-25 4-35 14-18 19-19 50 0 69l111 110-619 0c-13 0-27 6-35 15-10 8-19 21-19 33v248c0 27 22 49 49 49s49-22 49-49v-199l572 0-108 111c-18 18-18 50 0 68 19 19 50 19 69 0l193-193c21-20 21-50 1-68z m-768 368c14 0 28 5 38 15 9 10 16 24 16 38 0 14-5 29-16 38-10 10-24 16-38 16-14 0-29-6-38-16-10-9-17-24-17-38 0-14 6-28 17-38 9-8 24-15 38-15z" horiz-adv-x="1000" />

<glyph glyph-name="stack" unicode="&#xe8a7;" d="M880 675c0 115-191 175-380 175s-380-60-380-175c0-1 0-2 0-3 0 0 0-1 0-1v-651c0-111 191-170 380-170s380 59 380 171v650c0 0 0 1 0 1 0 2 0 2 0 3z m-86-329c0-24-104-84-294-84s-293 59-293 84v214c73-39 183-60 293-60s220 21 294 60v-214z m-294 417c194 0 294-62 294-88s-100-88-294-88-293 62-293 88 100 88 293 88z m0-826c-190 0-293 59-293 84v213c73-38 183-58 293-58s220 20 294 58v-213c0-25-104-84-294-84z m185 447v53c0 21 17 38 38 38s38-17 38-38v-53c0-21-17-38-38-38s-38 16-38 38z" horiz-adv-x="1000" />

<glyph glyph-name="star" unicode="&#xe8a8;" d="M769-107c-9 0-17 3-24 7l-245 160-245-160c-15-10-34-9-48 1-15 11-21 29-17 47l77 272-230 194c-13 11-18 30-13 47s21 28 38 30l275 20 124 271c6 15 22 25 39 25s33-10 39-25l124-271 275-20c17-1 33-13 38-30 6-16 0-35-13-47l-229-193 77-272c5-18-1-36-16-47-8-5-17-9-26-9z m-269 261c9 0 16-2 24-6l172-112-54 188c-4 16 2 34 15 45l168 142-193 15c-17 1-30 11-37 25l-95 208-95-208c-6-14-20-24-36-25l-194-14 169-142c13-11 18-29 14-45l-54-189 172 111c8 5 15 7 24 7z" horiz-adv-x="1000" />

<glyph glyph-name="stopwatch" unicode="&#xe8a9;" d="M884 637c8-8 18-11 29-11 12 0 24 4 33 14 16 18 15 46-4 62l-56 51c0 0 0 0 0 0s0 0 0 0l-57 51c-17 17-45 16-60-3-17-17-16-46 3-62l24-22-44-48c-50 36-107 64-170 78-2 14-7 29-18 43-11 15-34 33-75 35-1 0-1 0-2 0-38 0-60-16-72-30-13-16-18-34-20-48-201-43-351-221-351-434 0-244 198-445 443-445 245 0 443 199 443 445 0 114-43 219-114 298l44 49 24-23z m-397-681c-197 0-357 160-357 357s160 357 357 357c197 0 357-160 357-357s-160-357-357-357z m76 357c0-41-35-75-76-75-41 0-74 34-74 75 0 25 11 48 33 61v176c0 24 19 44 43 44s44-20 44-44v-176c21-13 30-36 30-61z" horiz-adv-x="1000" />

<glyph glyph-name="store" unicode="&#xe8aa;" d="M435 247c0 20-18 38-38 38h-142c-20 0-38-18-38-38v-142c0-20 18-38 38-38h142c20 0 38 18 38 38v142z m-141-38h65v-65h-65v65z m694 365l-97 98v113c0 24-19 43-44 43h-694c-25 0-44-19-44-43v-113l-97-98c-8-8-12-19-12-30v-111c0-24 20-39 44-39h913c23 0 43 15 43 40v110c0 11-4 22-12 30z m-184 167v-54h-608v54h608z m109-261h-826v46l89 85h648l89-85v-46z m22-175v-390c0-24-20-43-44-43h-149c-23 0-43 17-43 41l0 231h-101v-229c0-24-21-43-45-43h-443c-24 0-45 19-45 43v390c0 24 20 44 44 44s43-20 43-44v-346h359v232c0 24 18 39 42 39h188c24 0 41-15 41-39v-232h65v346c0 24 19 44 43 44s45-20 45-44z" horiz-adv-x="1000" />

<glyph glyph-name="suitcase" unicode="&#xe8ab;" d="M976 590c-15 15-36 21-56 21h-235v130c0 24-25 44-49 44h-272c-24 0-49-20-49-44v-130h-235c-44 0-80-32-80-75v-539c0-46 36-82 80-82h839c44 0 80 36 80 81l0 538c1 21-8 41-23 56z m-259-66v-522h-434v522h434z m-315 174h196v-87h-196v87z m-315-174h130v-522h-130v522z m826-522h-130v522h130l0-522z" horiz-adv-x="1000" />

<glyph glyph-name="swap" unicode="&#xe8ac;" d="M1000 247c0-12-4-23-13-31l-202-202c-9-9-20-12-31-12-10 0-22 6-30 13-17 18-17 46 0 63l127 131h-425c-24 0-43 19-43 43s19 44 43 44h425l-127 125c-17 17-17 42 0 58 17 18 45 18 62 0l202-202c8-7 12-18 12-30z m-851 157h425c24 0 43 20 43 44s-19 43-43 43h-425l127 131c18 17 18 45 0 63s-44 17-62 1l-201-202c-9-8-13-19-13-31s4-23 13-30l202-202c9-9 20-13 31-13 11 0 23 4 30 13 18 17 18 42 0 58l-127 125z" horiz-adv-x="1000" />

<glyph glyph-name="tag" unicode="&#xe8ad;" d="M957 633h-642c-11 0-20-5-28-11l-272-239c-10-9-15-21-15-33 0-13 5-24 15-33l272-239c8-6 18-11 28-11h642c23 0 43 20 43 44v478c0 24-20 44-43 44z m-44-479h-581l-222 196 223 196h580v-392z m-617 246c13 13 31 21 50 21 18 0 37-8 50-21 13-13 20-31 20-50s-7-37-20-50c-13-13-32-21-50-21-19 0-37 8-50 21-13 13-21 32-21 50s8 37 21 50z" horiz-adv-x="1000" />

<glyph glyph-name="tag-delete" unicode="&#xe8ae;" d="M957 633h-642c-11 0-20-5-28-11l-272-239c-10-9-15-21-15-33 0-13 5-24 15-33l272-239c8-6 18-11 28-11h642c23 0 43 20 43 44v478c0 24-20 44-43 44z m-44-479h-581l-222 196 223 196h580v-392z m-434 137l59 59-59 59c-15 15-15 39 0 53 16 15 40 15 54 0l58-59 59 59c15 15 39 15 53 0 16-15 16-39 0-53l-57-59 58-59c16-15 16-39 0-53-7-8-17-11-27-11s-19 3-27 11l-59 59-58-59c-8-8-18-11-28-11-9 0-19 3-27 11-13 14-13 38 1 53z" horiz-adv-x="1000" />

<glyph glyph-name="tags" unicode="&#xe8af;" d="M817 289c0 12-4 23-13 31l-405 400c-8 7-17 12-28 12l-324 20c-13 1-25-4-34-13-9-9-14-20-13-34l21-318c1-11 5-21 13-28l406-399c9-9 20-13 31-13 11 0 21 4 30 13l303 299c9 7 13 18 13 30z m-346-237l-363 358-18 252 259-16 363-357-241-237z m-188 513c12-12 19-29 19-45 0-18-6-34-19-46-12-12-30-20-47-20-17 0-34 7-47 20-12 12-19 29-19 46 0 17 6 33 19 45 12 12 30 20 47 20 17 0 35-8 47-20z m717-276c0-10-4-19-11-27l-303-298c-8-8-17-11-27-11-10 0-20 3-27 11-16 15-16 39 0 53l276 271-380 373c-15 15-15 39 0 53 16 15 39 15 55 0l406-398c7-7 11-17 11-27z" horiz-adv-x="1000" />

<glyph glyph-name="thumbs-down" unicode="&#xe8b0;" d="M350 850c136 0 347-45 400-81 12-9 19-22 19-36v-425c0-13-7-26-17-34-3-2-79-62-158-107-99-54-168-130-184-178-21-59-49-139-138-139-43 0-77 24-96 65-37 85 2 202 68 295-44 10-98 24-131 34-59 18-99 61-106 115-8 54 19 110 77 152 42 113 115 294 168 324 20 11 56 15 98 15z m330-143c-82 34-336 71-384 52-25-23-89-169-134-292-3-8-9-16-16-21-36-24-55-52-51-76 3-20 20-36 46-45 55-17 189-47 192-47 15-3 27-14 32-29s1-32-10-42c-97-106-115-214-96-257 4-13 10-13 13-13 22 0 31 15 54 80 26 77 116 168 224 227 52 28 104 66 130 85v378z m172 30v-434c0-39 32-70 71-70s71 31 71 70v434c0 39-32 71-71 71s-71-33-71-71z" horiz-adv-x="1000" />

<glyph glyph-name="thumbs-up" unicode="&#xe8b1;" d="M650-150c-135 0-347 45-399 81-12 9-18 22-18 36v425c0 13 6 27 16 34 3 2 79 62 159 107 99 54 167 130 183 178 20 59 48 139 137 139 43 0 77-24 96-65 37-85-2-202-67-295 43-10 97-24 130-33 60-19 99-62 108-116 7-54-20-109-78-152-42-114-115-294-168-324-21-11-57-15-99-15z m-330 143c82-34 337-70 384-52 25 23 90 169 134 292 3 8 9 16 16 21 36 24 55 53 51 76-3 20-20 36-46 45-55 17-189 47-192 47-15 3-27 14-32 29s-1 32 10 43c97 105 115 213 96 256-4 13-9 13-13 13-21 0-31-15-54-80-26-76-116-168-224-226-52-29-104-67-130-86v-378z m-172-30v435c0 39-32 71-71 71s-72-32-72-71v-434c0-39 32-71 71-71s72 32 72 70z" horiz-adv-x="1000" />

<glyph glyph-name="ticket" unicode="&#xe8b2;" d="M296 391l245-245c10-10 23-16 36-16 13 0 26 6 36 16l91 91c10 10 16 22 16 36 0 13-6 26-16 36l-245 245c-10 10-22 16-36 16-13 0-26-6-36-16l-91-91c-20-19-20-52 0-72z m127 107l225-225-71-71-225 225 71 71z m564-251l-590 590c-18 17-45 17-62 0l-83-83c-12-12-16-30-10-46 12-30 5-62-17-84-22-22-54-28-84-17-16 6-34 2-46-10l-83-83c-8-7-12-19-12-30 0-12 4-23 13-31l590-590c9-9 20-13 31-13 12 0 23 4 30 13l83 83c12 12 16 30 10 46-12 30-5 62 17 84 22 22 54 28 84 18 16-7 34-3 46 9l83 83c17 17 17 44 0 61z m-126-64c-53 11-110-6-149-46-39-39-55-96-46-149l-33-34-528 530 34 33c53-10 110 6 149 46 39 39 56 96 46 149l33 34 529-529-35-34z" horiz-adv-x="1000" />

<glyph glyph-name="time-reverse" unicode="&#xe8b3;" d="M1000 350c0-234-189-424-422-424-86 0-168 26-239 74-19 14-25 40-11 61 14 19 41 25 61 11 56-38 122-59 189-59 185 0 335 151 335 337 0 186-150 337-335 337-180 0-328-145-334-325l101 102c17 18 44 18 62 0 17-17 17-44 0-62l-167-166c-8-9-19-13-30-13-12 0-23 4-31 13l-166 167c-17 18-17 45 0 62 17 18 45 18 62 0l83-83c15 218 197 392 420 392 233 0 422-190 422-424z m-424 247c-24 0-43-20-43-44v-203c0-12 5-23 14-30l93-94c9-9 20-13 32-13 11 0 23 4 30 13 18 18 17 45-1 62l-81 81v184c0 24-20 44-44 44z" horiz-adv-x="1000" />

<glyph glyph-name="to-do" unicode="&#xe8b4;" d="M272 657v139c0 30 24 54 54 54s54-24 54-54v-139c0-31-23-55-54-55s-54 24-54 55z m402-55c30 0 54 24 54 55v139c0 30-24 54-54 54s-54-24-54-54v-139c0-31 24-55 54-55z m-367-187h385c24 0 44 20 44 44s-20 43-44 43h-385c-24 0-44-19-44-43s20-44 44-44z m606 359h-90c-24 0-44-20-44-44s20-43 44-43h47v-739h-740v739h47c24 0 44 20 44 43s-20 44-44 44h-90c-24 0-43-24-43-48v-822c0-24 19-43 43-43h826c24 0 44 19 44 43v822c0 24-20 48-44 48z m-449-87h72c24 0 43 20 43 43s-19 44-43 44h-72c-24 0-43-20-43-44s19-43 43-43z m-157-467h385c24 0 44 19 44 43s-20 44-44 44h-385c-24 0-44-20-44-44s20-43 44-43z" horiz-adv-x="1000" />

<glyph glyph-name="toggles" unicode="&#xe8b5;" d="M913 320v-427c0-23-19-43-43-43s-44 20-44 43v427c0 24 20 43 44 43s43-19 43-43z m-43 406c24 0 43 20 43 44v37c0 23-19 43-43 43s-44-20-44-43v-37c0-24 20-44 44-44z m-610-376c0-72-59-130-130-130s-130 58-130 130 59 130 129 130 131-58 131-130z m-87 0c0 24-20 44-43 44s-43-20-43-44 20-43 42-43 44 19 44 43z m456-214c0-72-58-131-129-131s-129 59-129 131c0 72 58 130 129 130s129-57 129-130z m-87 0c0 24-19 43-42 43s-42-19-42-43c0-24 19-44 42-44s42 20 42 44z m458 403c0-72-59-130-129-130s-130 58-130 130 59 131 130 131 129-59 129-131z m-87 0c0 24-19 44-42 44s-43-20-43-44 20-43 43-43 42 18 42 43z m-413-577c-24 0-43-20-43-44v-25c0-23 19-43 43-43s44 20 44 43v25c0 24-20 44-44 44z m0 359c24 0 44 19 44 43v443c0 23-20 43-44 43s-43-20-43-43v-443c0-24 19-43 43-43z m-370-159c-23 0-43-20-43-43v-226c0-23 20-43 43-43s44 20 44 43v226c0 23-20 43-44 43z m0 374c24 0 44 19 44 43v228c0 23-20 43-44 43s-43-20-43-43v-228c0-24 20-43 43-43z" horiz-adv-x="1000" />

<glyph glyph-name="trash" unicode="&#xe8b6;" d="M852 520l-33-629c-2-23-21-41-44-41h-550c-23 0-42 18-43 41l-34 629c-1 24 17 44 41 45 24 1 45-17 46-41l31-587h469l31 587c1 24 22 42 46 41 23-1 41-21 40-45z m115 145c0-24-19-43-43-43h-848c-24 0-43 19-43 43s19 44 43 44h239v98c0 20 14 32 35 32h300c21 0 35-12 35-32v-98h239c24 0 43-20 43-44z m-576 44h218v54h-218v-54z m19-707c0 0 0 0 0 0 22 0 38 21 38 42l-11 469c0 21-17 38-39 38-21 0-38-17-37-39l11-471c0-20 17-39 38-39z m179 0c21 0 38 18 38 38l11 470c0 20-16 39-37 39-22 0-38-16-39-37l-11-470c-1-21 16-40 38-40-1 0-1 0 0 0z" horiz-adv-x="1000" />

<glyph glyph-name="trophy" unicode="&#xe8b7;" d="M587 544v96c0 21 17 38 38 38s38-17 38-38v-96c0-21-17-39-38-39s-38 18-38 39z m36-148c12 0 23 4 30 13 8 8 13 19 13 30 0 12-4 23-13 31-7 8-19 13-30 13-12 0-23-5-31-13-7-8-13-20-13-31 0-11 5-23 13-30 8-9 20-13 31-13z m288 41c-33-34-73-54-121-62-24-146-127-220-246-235v-160h93c24 0 43-19 43-43s-19-44-43-44h-273c-24 0-43 20-43 44s19 43 43 43h93v160c-120 15-222 89-246 235-48 8-88 27-122 62-89 92-85 250-84 257 2 20 18 36 39 36h163v33c0 24 18 44 42 44h502c24 0 43-20 43-44v-33h163c20 0 37-16 38-36 0-7 4-166-84-257z m-766 52c17-17 40-30 62-36v201h-124c4-43 17-118 62-165z m562 231h-413v-282c0-158 106-213 206-213s207 57 207 213v282z m148-231c43 44 58 111 62 165h-123v-201c21 7 44 19 61 36z" horiz-adv-x="1000" />

<glyph glyph-name="upload" unicode="&#xe8b8;" d="M967 211v-296c0-30-23-54-54-54h-826c-30 0-54 24-54 54v296c0 30 24 54 54 54s54-24 54-54v-241h718v241c0 30 24 54 54 54s54-24 54-54z m-645 314l124 127v-470c0-31 24-55 54-55s54 24 54 55v469l124-126c11-11 25-16 39-16 15 0 28 5 38 15 22 21 22 55 2 77l-218 222c-11 11-25 16-39 16-14 0-28-5-39-16l-216-222c-21-22-21-55 1-77 20-21 55-20 76 1z" horiz-adv-x="1000" />

<glyph glyph-name="user" unicode="&#xe8b9;" d="M500 229c161 0 292 132 292 294 0 163-131 294-292 294s-292-131-292-293c0-163 131-295 292-295z m0 501c113 0 205-92 205-206 0-114-92-207-205-207s-205 93-205 207c0 114 92 206 205 206z m136-529c-14 4-31 1-41-9l-95-80-95 80c-11 10-27 13-41 9-61-19-364-124-364-275 0-24 20-43 44-43h913c23 0 43 19 43 43 0 151-303 256-364 275z m-526-231c48 51 163 107 259 140l103-88c16-14 40-14 56 0l104 88c95-34 210-90 258-140h-780z" horiz-adv-x="1000" />

<glyph glyph-name="user-group" unicode="&#xe8ba;" d="M385 260c127 0 230 103 230 229 0 127-103 230-230 230s-231-104-231-230c1-126 105-229 231-229z m0 373c79 0 143-64 143-143 0-78-64-142-143-142s-144 64-144 142c1 79 66 143 144 143z m104-394c-12 3-25 2-36-4l-68-41-69 41c-11 6-24 7-36 4-66-22-280-99-280-215 0-24 20-44 44-44h682c24 0 44 20 44 44 0 116-215 193-281 215z m-367-172c37 29 99 59 166 83l74-45c14-8 32-8 45 0l73 45c68-23 130-54 167-83h-525z m867 33c0-18-14-33-32-33h-146c-19 0-33 15-33 33s14 33 33 33h97c-17 21-43 39-75 56-17 9-22 28-13 44 8 16 28 21 44 13 47-25 125-79 125-146z m-182 287c0 48-40 86-86 86-12 0-23-2-34-7-16-6-36 1-42 18-7 16 1 36 17 42 18 8 38 12 59 12 83 0 151-67 151-151s-69-151-151-151c-44 0-85 18-113 51-12 13-11 34 3 46 13 12 34 11 46-4 16-18 40-29 65-29 45 1 85 40 85 87z" horiz-adv-x="1000" />

<glyph glyph-name="user-id" unicode="&#xe8bb;" d="M677 247c84 0 152 68 152 152 0 84-68 152-152 152s-152-68-152-152c0-84 69-152 152-152z m0 239c48 0 87-39 87-87 0-48-39-87-87-87s-87 39-87 87c0 48 39 87 87 87z m-506-16c0 18 14 32 32 32h189c19 0 33-14 33-32s-14-33-33-33h-189c-18 0-32 14-32 33z m221-153h-189c-18 0-32 15-32 33s14 33 32 33h189c19 0 33-14 33-33s-14-33-33-33z m-47-87c0-18-15-32-33-32h-109c-18 0-32 14-32 32s14 33 32 33h110c17 0 32-14 32-33z m655 374c0 40-33 72-72 72h-856c-39 0-72-32-72-72v-508c0-39 33-72 72-72h856c39 0 72 33 72 72v508z m-913-15h826v-453c-47 46-127 76-159 87-6 2-14 2-21 0l-56-20-55 20c-7 2-14 1-22-1-36-12-138-46-177-111h-336v478z m432-478c25 22 57 33 92 46l55-20c7-2 16-2 22 0l56 18c34-13 67-23 92-45h-317z" horiz-adv-x="1000" />

<glyph glyph-name="vibrate" unicode="&#xe8bc;" d="M11 574c-18 21-14 51 5 67 175 147 355 96 507 26 161-73 290-66 397 22 20 18 51 14 68-6 17-21 14-51-6-68-77-63-162-94-257-94-75 0-156 19-242 59-150 69-278 94-404-13-20-16-51-14-68 7z m910-158c-107-88-237-94-397-21-152 69-332 121-507-26-20-18-22-48-5-68 17-21 48-23 68-5 127 105 253 81 404 12 86-39 167-60 242-60 95 0 181 31 257 94 20 18 24 48 6 68-17 20-48 24-68 6z m0-272c-107-89-237-95-397-22-152 69-332 122-507-26-20-18-22-48-5-68 17-20 48-23 68-5 127 105 253 81 404 12 86-39 167-60 242-60 95 0 181 32 257 95 20 17 24 47 6 67-17 21-48 24-68 7z" horiz-adv-x="1000" />

<glyph glyph-name="view-apps" unicode="&#xe8bd;" d="M217 546c-19 0-40 8-54 23-14 14-22 33-22 53 0 19 9 39 22 54 14 14 34 22 54 22 20 0 40-9 54-22 14-14 23-34 23-54 0-20-9-39-23-53-14-15-34-23-54-23z m336 23c14 14 23 33 23 53 0 19-9 39-23 54-14 14-33 22-53 22-20 0-40-9-54-22-14-14-22-34-22-54 0-20 9-39 22-53 14-15 33-23 54-23 20 0 39 8 53 23z m283 0c14 14 23 33 23 53 0 19-9 39-23 54-14 14-34 22-53 22-20 0-41-9-55-22-14-14-21-34-21-54 0-20 8-39 21-53 14-15 34-23 55-23 19 0 39 8 53 23z m-565-272c14 14 23 33 23 53 0 20-9 39-23 54-14 15-34 22-54 22-19 0-40-9-54-22-14-14-22-33-22-54 0-20 9-39 22-53 14-14 34-23 54-23 20 0 40 9 54 23z m282 0c14 14 23 33 23 53 0 20-9 39-23 54-14 15-33 22-53 22-20 0-40-9-54-22-14-14-22-33-22-54 0-20 9-39 22-53 14-14 33-23 54-23 20 0 39 9 53 23z m283 0c14 14 23 33 23 53 0 20-9 39-23 54-14 15-34 22-53 22-20 0-41-9-55-22-14-14-21-33-21-54 0-20 8-39 21-53 14-14 34-23 55-23 19 0 39 9 53 23z m-565-272c14 14 23 34 23 53 0 20-9 39-23 55-14 14-34 21-54 21-19 0-40-8-54-21-14-14-22-34-22-55 0-19 9-39 22-53 14-14 34-23 54-23 20 0 40 9 54 23z m282 0c14 14 23 34 23 53 0 20-9 39-23 55-14 14-33 21-53 21-20 0-40-8-54-21-14-14-22-34-22-55 0-19 9-39 22-53 14-14 33-23 54-23 20 0 39 9 53 23z m283 0c14 14 23 34 23 53 0 20-9 39-23 55-14 14-34 21-53 21-20 0-41-8-55-21-14-14-21-34-21-55 0-19 8-39 21-53 14-14 34-23 55-23 19 0 39 9 53 23z" horiz-adv-x="1000" />

</font>
</defs>
</svg>
